<?xml version="1.0" encoding="UTF-8"?>
<svg version="1.1" xmlns="http://www.w3.org/2000/svg" width="500" height="500">
<path d="M0 0 C0.77859375 0.67546875 1.5571875 1.3509375 2.359375 2.046875 C3.17921875 2.72234375 3.9990625 3.3978125 4.84375 4.09375 C25.07997689 21.31339648 36.00590939 46.07002945 39.359375 72.046875 C39.88402344 72.15902344 40.40867187 72.27117187 40.94921875 72.38671875 C55.92607128 76.19946157 68.82794016 85.05795677 80.359375 95.046875 C81.10445313 95.69011719 81.84953125 96.33335937 82.6171875 96.99609375 C101.30634147 114.43678197 111.73455115 138.97393073 114.359375 164.046875 C115.22949219 164.19382813 115.22949219 164.19382813 116.1171875 164.34375 C121.39191001 165.35343286 125.0345214 166.70494268 129.359375 170.046875 C130.205 170.60375 131.050625 171.160625 131.921875 171.734375 C138.15496543 177.64781977 140.47525119 184.91516348 140.796875 193.296875 C140.72206442 198.86744384 139.85330062 203.33351493 137.765625 208.5234375 C137.3628257 209.55862015 137.3628257 209.55862015 136.95188904 210.61471558 C134.25656852 217.46826274 131.34615245 224.22957836 128.38668823 230.97238159 C126.63053524 234.97589938 124.89024969 238.98632091 123.1484375 242.99609375 C122.76970993 243.86732376 122.39098236 244.73855377 122.0007782 245.63618469 C117.04099972 257.06056945 112.17232982 268.52382366 107.296875 279.984375 C106.32508336 282.26694872 105.35324061 284.54950067 104.38134766 286.83203125 C100.03993741 297.03063876 95.70315426 307.23118495 91.37944698 317.43731022 C89.02390942 322.99751146 86.66506647 328.55630473 84.30545044 334.11477661 C83.31107098 336.45944264 82.31809713 338.80470537 81.32662964 341.15060425 C63.88628126 382.41454814 63.88628126 382.41454814 48.3176316 388.89701515 C42.80556716 390.85363643 37.97631984 391.47795391 32.15090942 391.43455505 C31.26893351 391.43994059 30.3869576 391.44532613 29.47825515 391.45087487 C26.54671881 391.46509 23.61563814 391.45806669 20.68408203 391.45092773 C18.57254679 391.45663469 16.46101463 391.46360021 14.3494873 391.47172546 C8.63041114 391.48963652 2.91148859 391.48849223 -2.80760717 391.48278308 C-7.58880466 391.47968808 -12.36997278 391.4857872 -17.15116608 391.49182183 C-28.43429843 391.5058589 -39.71735506 391.50431272 -51.00048828 391.49291992 C-62.62542621 391.4814411 -74.25013337 391.49551243 -85.87504089 391.5223164 C-95.8702325 391.54449646 -105.86535179 391.55110551 -115.86056626 391.54523998 C-121.82388786 391.54187456 -127.78706158 391.54425801 -133.7503624 391.56149101 C-139.35981607 391.57699457 -144.96892877 391.57296653 -150.57836914 391.55418587 C-152.6313788 391.55050937 -154.68441391 391.5535809 -156.73740005 391.56407166 C-170.42302831 391.62864005 -181.17461922 391.02536375 -192.375 382.31640625 C-199.03525535 375.6446677 -203.17257095 368.50663909 -206.72265625 359.83203125 C-207.17404465 358.76101669 -207.62543304 357.69000214 -208.09049988 356.58653259 C-209.55716912 353.0992236 -211.00500382 349.60442154 -212.453125 346.109375 C-213.48097036 343.65757819 -214.50997689 341.20631069 -215.54101562 338.75585938 C-217.10257609 335.04204034 -218.66288466 331.32772245 -220.21633911 327.61050415 C-224.28071895 317.8852586 -228.41190081 308.19040128 -232.58071899 298.509552 C-234.37341985 294.34423626 -236.15927161 290.17598733 -237.9453125 286.0078125 C-238.31012222 285.15657303 -238.67493195 284.30533356 -239.05079651 283.42829895 C-243.78884362 272.37036044 -248.51919814 261.30914418 -253.24072266 250.24414062 C-254.23926757 247.90493005 -255.23858704 245.56604992 -256.23876953 243.22753906 C-259.3963247 235.84381679 -262.53169161 228.4512014 -265.640625 221.046875 C-266.04812988 220.08063202 -266.45563477 219.11438904 -266.87548828 218.11886597 C-268.02016121 215.39263701 -269.14946321 212.66059837 -270.2734375 209.92578125 C-270.60699249 209.13470978 -270.94054749 208.34363831 -271.28421021 207.52859497 C-274.70269299 199.10141215 -275.41838374 190.83888997 -272.078125 182.171875 C-267.0141989 172.56294102 -259.67495488 166.7505945 -249.3984375 163.5625 C-248.81835938 163.39234375 -248.23828125 163.2221875 -247.640625 163.046875 C-247.49367188 162.0053125 -247.34671875 160.96375 -247.1953125 159.890625 C-245.59071746 149.3410021 -242.88107355 139.83313406 -238.640625 130.046875 C-238.1765625 128.97566406 -237.7125 127.90445313 -237.234375 126.80078125 C-225.76544927 102.30188157 -204.35896839 84.31948219 -179.63671875 74.2734375 C-178.64800781 73.86867188 -177.65929687 73.46390625 -176.640625 73.046875 C-175.49400391 72.68916016 -175.49400391 72.68916016 -174.32421875 72.32421875 C-172.0324129 70.58542406 -171.92833871 68.80186494 -171.52880859 66.046875 C-171.44195801 65.36625 -171.35510742 64.685625 -171.265625 63.984375 C-167.12329896 38.1578217 -153.34130737 15.1139744 -132.640625 -0.953125 C-93.2271329 -29.2875806 -38.35733795 -32.34050063 0 0 Z M-132.890625 27.546875 C-143.54336632 39.97507321 -150.53153013 54.99553603 -152.0859375 71.3984375 C-152.15973633 72.15664795 -152.23353516 72.9148584 -152.30957031 73.69604492 C-152.44378069 75.18651157 -152.55623418 76.67914846 -152.64355469 78.1730957 C-152.9542236 81.84405228 -153.54891595 83.92255829 -155.75 86.90625 C-159.03820149 89.34129651 -162.11558608 90.38317999 -166.015625 91.359375 C-178.76406163 94.96833991 -189.78664486 101.15725234 -199.640625 110.046875 C-200.32382813 110.64886719 -201.00703125 111.25085938 -201.7109375 111.87109375 C-216.46531764 125.6707787 -223.92195721 143.59893538 -227.640625 163.046875 C-227.640625 163.376875 -227.640625 163.706875 -227.640625 164.046875 C-121.710625 164.046875 -15.780625 164.046875 93.359375 164.046875 C92.49988451 154.11882462 92.49988451 154.11882462 89.671875 145.046875 C89.4042334 144.36608887 89.1365918 143.68530273 88.86083984 142.98388672 C79.35840863 119.38646088 62.37508465 103.39136745 39.359375 93.046875 C27.99754566 88.56836252 16.83655179 87.21817268 5.359375 92.046875 C-5.49208795 98.05054607 -11.64335225 106.26532226 -16.6484375 117.3828125 C-17.640625 119.046875 -17.640625 119.046875 -20.640625 121.046875 C-25.2003498 121.38463239 -28.5189171 121.04527883 -32.640625 119.046875 C-34.44722195 109.81752104 -32.73605647 103.9367595 -27.75390625 96.06640625 C-16.0382156 79.47093063 -1.70775641 73.32920439 17.359375 69.046875 C15.21221798 48.29855774 3.38222165 29.07350937 -12.453125 15.734375 C-51.07604732 -13.14143759 -100.47747366 -7.67949324 -132.890625 27.546875 Z M-252.640625 189.046875 C-254.40205022 192.56972543 -253.40942583 196.32399277 -252.640625 200.046875 C-251.31585031 203.94826164 -249.65919716 207.67452596 -247.96875 211.4296875 C-247.49511017 212.50876373 -247.02147034 213.58783997 -246.53347778 214.69961548 C-244.99671426 218.19526765 -243.44352988 221.68336786 -241.890625 225.171875 C-240.2875896 228.81057399 -238.68901819 232.45121361 -237.09054565 236.09191895 C-236.03868915 238.48667067 -234.98541406 240.88079983 -233.93069458 243.27429199 C-230.19936655 251.74515685 -226.55851087 260.24556242 -223.015625 268.796875 C-216.57222863 284.29750866 -209.95597756 299.72335959 -203.3215332 315.14306641 C-202.42520382 317.22684968 -201.52896228 319.31067074 -200.6328125 321.39453125 C-200.19795029 322.40567993 -199.76308807 323.41682861 -199.31504822 324.45861816 C-196.7866909 330.34742599 -194.29272899 336.24898393 -191.8359375 342.16796875 C-191.28876857 343.47773567 -190.74133688 344.78739285 -190.19360352 346.09692383 C-189.24062412 348.3826695 -188.2974213 350.67253173 -187.36694336 352.9675293 C-184.33182971 360.21456502 -181.31035176 365.81056438 -174.48046875 369.97265625 C-169.31153165 371.41869664 -164.53924214 371.3697742 -159.203125 371.234375 C-158.18541016 371.22083984 -157.16769531 371.20730469 -156.11914062 371.19335938 C-153.62574286 371.1582411 -151.13346988 371.10906059 -148.640625 371.046875 C-149.27800436 365.10996554 -150.37447473 359.44201662 -151.77929688 353.64257812 C-151.99629242 352.73159835 -152.21328796 351.82061857 -152.43685913 350.88203335 C-153.15700956 347.86308703 -153.8832117 344.84563014 -154.609375 341.828125 C-155.122999 339.67966603 -155.63621431 337.53110933 -156.14904785 335.38246155 C-157.52397901 329.62608144 -158.90392476 323.8709144 -160.28479004 318.11595535 C-161.71110971 312.16778806 -163.13292331 306.21854464 -164.5546875 300.26928711 C-164.83749069 299.08592868 -165.12029388 297.90257025 -165.41166687 296.68335247 C-165.98327834 294.2914304 -166.5548675 291.899503 -167.12643433 289.50757027 C-167.98566311 285.91257933 -168.84545427 282.31772323 -169.70532227 278.72288513 C-173.17741448 264.2025916 -176.62717483 249.67725198 -180.046875 235.14453125 C-180.2489003 234.28632656 -180.4509256 233.42812187 -180.65907288 232.54391098 C-182.52859557 224.60147823 -184.39522409 216.65837428 -186.25634003 208.71396732 C-186.91736418 205.89442358 -187.58028936 203.07532927 -188.24369812 200.25634575 C-188.68893166 198.36119565 -189.13143718 196.4654053 -189.57385254 194.56959534 C-189.96461975 192.91008095 -189.96461975 192.91008095 -190.36328125 191.21704102 C-190.58765869 190.25911148 -190.81203613 189.30118195 -191.04321289 188.31422424 C-191.56081314 186.0360288 -191.56081314 186.0360288 -192.640625 184.046875 C-200.22100932 183.91996546 -207.80111908 183.83247692 -215.38232422 183.7722168 C-217.96055337 183.7470926 -220.53871143 183.71298741 -223.11669922 183.66967773 C-226.82537386 183.60893836 -230.53310575 183.58064303 -234.2421875 183.55859375 C-235.39240387 183.53278732 -236.54262024 183.5069809 -237.72769165 183.48039246 C-244.50436685 183.47802425 -248.07056195 183.86373092 -252.640625 189.046875 Z M-171.640625 184.046875 C-170.34214299 191.18852607 -168.97794825 198.19787856 -167.28076172 205.23828125 C-167.05228861 206.19661456 -166.8238155 207.15494787 -166.58841896 208.14232159 C-165.8351851 211.29868293 -165.07776564 214.45402377 -164.3203125 217.609375 C-163.78298343 219.85734439 -163.24592065 222.10537745 -162.70910645 224.35346985 C-161.27665827 230.34920042 -159.84063743 236.34406995 -158.40392303 242.33877945 C-156.92289507 248.5211563 -155.44522046 254.70433442 -153.96728516 260.88745117 C-151.61912675 270.70969656 -149.26924192 280.53152713 -146.91796875 290.35302734 C-144.06090818 302.28773644 -141.20840658 314.22352813 -138.359375 326.16015625 C-138.16612766 326.96977688 -137.97288033 327.77939751 -137.77377701 328.61355209 C-137.03621048 331.70367365 -136.29866773 334.79380089 -135.56118965 337.88394356 C-132.92287084 348.93870053 -130.28149331 359.99272684 -127.640625 371.046875 C-119.060625 371.046875 -110.480625 371.046875 -101.640625 371.046875 C-102.88873463 347.81217393 -104.27407764 324.59121637 -105.82977223 301.37512159 C-105.99138479 298.96146162 -106.15241335 296.54776334 -106.31326103 294.13405228 C-106.87645451 285.68297909 -107.44170727 277.23204675 -108.0090332 268.78125 C-108.53555911 260.93733774 -109.05725008 253.09311324 -109.57688147 245.24874151 C-110.02737846 238.45123192 -110.48116494 231.65394719 -110.93754762 224.85683024 C-111.2083987 220.82207659 -111.47791382 216.78724475 -111.74406624 212.75217819 C-111.9922849 208.99063858 -112.24457667 205.22939469 -112.50008965 201.46834373 C-112.59309693 200.08890522 -112.68462217 198.70936588 -112.77458191 197.32972527 C-112.89715033 195.45347068 -113.02550428 193.57759666 -113.15419006 191.70175171 C-113.22441407 190.65157553 -113.29463808 189.60139935 -113.36699009 188.51939964 C-113.49620282 186.04729103 -113.49620282 186.04729103 -114.640625 184.046875 C-133.450625 184.046875 -152.260625 184.046875 -171.640625 184.046875 Z M-93.640625 184.046875 C-93.64442791 193.3123579 -93.64442791 193.3123579 -93.22975159 202.51499939 C-93.18553808 203.18563386 -93.14132457 203.85626833 -93.09577125 204.54722506 C-92.94955667 206.75170148 -92.79817254 208.95578929 -92.64672852 211.15991211 C-92.53966555 212.75778651 -92.43292414 214.35568248 -92.32647705 215.95359802 C-92.03841961 220.26376087 -91.74583002 224.57360502 -91.45233655 228.88340068 C-91.14463629 233.41262071 -90.84099176 237.94211276 -90.53684998 242.47157288 C-90.02562474 250.07651111 -89.51168305 257.68126167 -88.99584961 265.28588867 C-88.33572689 275.01783663 -87.67985701 284.75006613 -87.0254221 294.48239803 C-86.46036134 302.88545974 -85.89359013 311.28840595 -85.32641864 319.69132543 C-85.14532594 322.37494227 -84.96441544 325.05857136 -84.78351021 327.74220085 C-84.49802971 331.97519126 -84.21148495 336.20810846 -83.92414856 340.44097328 C-83.8194307 341.98558792 -83.71502132 343.5302235 -83.61096001 345.07488251 C-83.46768918 347.20057196 -83.32322541 349.32617734 -83.17848206 351.45176697 C-83.09828607 352.63581084 -83.01809008 353.81985472 -82.93546391 355.03977871 C-82.54264703 360.37847386 -82.08517802 365.71223877 -81.640625 371.046875 C-71.740625 371.046875 -61.840625 371.046875 -51.640625 371.046875 C-49.06865965 339.01421559 -46.87832469 306.9561463 -44.72181141 274.89340723 C-44.67141394 274.14410774 -44.62101647 273.39480826 -44.5690918 272.62280273 C-44.51860652 271.87218996 -44.46812124 271.12157718 -44.4161061 270.34821856 C-44.00203477 264.19772848 -43.58299622 258.04758347 -43.16301185 251.89749473 C-42.75196385 245.87468307 -42.34456725 239.85163127 -41.93991059 233.82838684 C-41.70072618 230.26920352 -41.46012927 226.71013104 -41.21569252 223.15130424 C-40.94492286 219.20725571 -40.68175611 215.26271874 -40.41918945 211.31811523 C-40.33974594 210.17672089 -40.26030243 209.03532654 -40.17845154 207.85934448 C-39.65525395 199.86845888 -39.640625 192.09860689 -39.640625 184.046875 C-57.460625 184.046875 -75.280625 184.046875 -93.640625 184.046875 Z M-18.640625 184.046875 C-19.60578001 187.90749505 -19.95169706 191.33262214 -20.21644592 195.29650879 C-20.26630298 196.0280601 -20.31616003 196.75961141 -20.3675279 197.51333094 C-20.53372231 199.96504755 -20.69470566 202.41707831 -20.85571289 204.86914062 C-20.9737764 206.62678572 -21.09215678 208.38440956 -21.21083069 210.14201355 C-21.53226269 214.91646871 -21.84915241 219.6912157 -22.16516805 224.46603203 C-22.49637133 229.45981833 -22.83148793 234.45334208 -23.16612244 239.44689941 C-23.72753493 247.83309008 -24.28619149 256.21946065 -24.84301758 264.60595703 C-25.4870696 274.30596406 -26.13454442 284.00573756 -26.7840634 293.70537996 C-27.47514018 304.02567495 -28.16417507 314.34610539 -28.85236049 324.66659355 C-29.05094817 327.64312689 -29.24986733 330.61963795 -29.44883919 333.59614563 C-29.76122532 338.27126447 -30.07220911 342.9464746 -30.38210106 347.62175941 C-30.49613332 349.33909935 -30.61061605 351.05640944 -30.72557831 352.77368736 C-30.88221807 355.11479186 -31.03721878 357.45599921 -31.19178772 359.79724121 C-31.32257768 361.76392887 -31.32257768 361.76392887 -31.45600986 363.7703476 C-31.59250207 366.192795 -31.640625 368.62058534 -31.640625 371.046875 C-23.060625 371.046875 -14.480625 371.046875 -5.640625 371.046875 C1.85620323 340.37276239 9.22598 309.66827762 16.58444512 278.96074092 C17.88894675 273.51736879 19.19473717 268.07430641 20.5008027 262.63130933 C21.78764464 257.26818548 23.07360523 251.90485076 24.35892135 246.54136103 C25.11524878 243.38533684 25.87197912 240.22941037 26.62940025 237.07364845 C29.71276728 224.22504399 32.77237928 211.37096157 35.77270508 198.50268555 C36.03343905 197.39440053 36.29417303 196.28611551 36.56280804 195.1442461 C36.91750778 193.61421216 36.91750778 193.61421216 37.27937317 192.05326843 C37.59328617 190.70746972 37.59328617 190.70746972 37.91354084 189.33448315 C38.45502097 186.94454971 38.45502097 186.94454971 38.359375 184.046875 C19.549375 184.046875 0.739375 184.046875 -18.640625 184.046875 Z M59.359375 184.046875 C51.21406745 217.1097641 43.22487348 250.20746388 35.35437012 283.33679199 C34.26761317 287.90938552 33.17913316 292.48156818 32.09066582 297.05375481 C29.05537207 309.80424101 26.02756523 322.55648422 23.00756073 335.31060028 C22.38951345 337.91964745 21.77059365 340.52848606 21.15142822 343.13726807 C20.2820246 346.80178898 19.41595874 350.46707895 18.55327797 354.13318825 C18.11342326 355.99950632 17.6704399 357.86508617 17.2273407 359.7306366 C16.97483047 360.80799576 16.72232025 361.88535492 16.4621582 362.99536133 C16.13862114 364.36716301 16.13862114 364.36716301 15.80854797 365.76667786 C15.26273781 368.15011119 15.26273781 368.15011119 15.359375 371.046875 C18.85908699 371.1642544 22.35828455 371.23451461 25.859375 371.296875 C27.33277344 371.34714844 27.33277344 371.34714844 28.8359375 371.3984375 C36.94451326 371.50655184 42.12590443 370.13422663 48.0390625 364.48828125 C51.32087442 360.09207185 53.33132498 354.99540575 55.484375 349.984375 C56.24862793 348.235802 56.24862793 348.235802 57.02832031 346.4519043 C62.64363847 333.56610463 68.06747673 320.59595021 73.51513672 307.63867188 C79.63067682 293.0986802 85.82772825 278.59490218 92.05529785 264.10256958 C96.04652395 254.8102171 100.02580944 245.51274429 104.00366211 236.21466064 C104.88473366 234.15593138 105.76637504 232.09744587 106.64868164 230.03924561 C108.90529607 224.77511191 111.15284798 219.5073858 113.38122559 214.23123169 C114.02466417 212.71210876 114.67178207 211.19453807 115.32287598 209.67868042 C116.19938176 207.63626913 117.06238725 205.58868125 117.921875 203.5390625 C118.39753906 202.41870605 118.87320313 201.29834961 119.36328125 200.14404297 C120.77253571 195.76222872 121.02547851 192.51230271 119.109375 188.296875 C117.21421345 185.86023873 116.19283441 185.15742318 113.359375 184.046875 C110.77418449 183.75897793 110.77418449 183.75897793 107.94824219 183.81982422 C106.32701447 183.82005081 106.32701447 183.82005081 104.67303467 183.82028198 C102.93222626 183.83576584 102.93222626 183.83576584 101.15625 183.8515625 C99.96332336 183.8543924 98.77039673 183.85722229 97.5413208 183.86013794 C93.73057024 183.87133447 89.92005455 183.89643847 86.109375 183.921875 C83.52604506 183.93190546 80.94271144 183.9410312 78.359375 183.94921875 C72.02596151 183.97127211 65.69268503 184.00474465 59.359375 184.046875 Z " fill="#000000" transform="translate(317.640625,65.953125)"/>
</svg>
