<?xml version="1.0" encoding="UTF-8"?>
<svg version="1.1" xmlns="http://www.w3.org/2000/svg" width="500" height="500">
<path d="M0 0 C8.77817351 8.05131837 14.25557127 16.61253548 14.83984375 28.6875 C15.56429687 28.79835937 16.28875 28.90921875 17.03515625 29.0234375 C24.69951698 30.83811901 32.17403657 36.40450439 36.83984375 42.6875 C40.97943586 49.64765587 44.67451129 56.42087721 44.83984375 64.6875 C45.74734375 64.914375 46.65484375 65.14125 47.58984375 65.375 C51.37722965 66.90452123 52.68572856 68.25687211 54.83984375 71.6875 C57.46868464 80.99336471 51.05693461 91.28208397 47.4375 99.66796875 C46.91852646 100.88019608 46.39955292 102.0924234 45.86485291 103.34138489 C44.77313166 105.8901385 43.6776761 108.43724203 42.5793457 110.9831543 C41.17974926 114.22801163 39.7888218 117.47649886 38.40056705 120.72622204 C37.06300228 123.85448508 35.71876832 126.97986533 34.375 130.10546875 C33.8800856 131.26290085 33.3851712 132.42033295 32.8752594 133.61283875 C25.39815193 150.90834591 25.39815193 150.90834591 17.83984375 154.6875 C15.06470597 154.80161824 12.31409179 154.85534989 9.53808594 154.86450195 C8.25000282 154.87435875 8.25000282 154.87435875 6.93589783 154.88441467 C4.08617063 154.90416971 1.23649621 154.91581577 -1.61328125 154.92578125 C-2.58585625 154.92985678 -3.55843124 154.9339323 -4.56047821 154.93813133 C-9.70909921 154.95900245 -14.85769348 154.97329911 -20.00634766 154.98266602 C-25.3239258 154.99372676 -30.64108505 155.0281199 -35.95851517 155.06783772 C-40.04720842 155.09398893 -44.1358017 155.10235658 -48.22457123 155.10594749 C-50.184566 155.11081808 -52.14455617 155.12244548 -54.1044693 155.14098549 C-56.8502565 155.16534286 -59.59495806 155.16441805 -62.34082031 155.1574707 C-63.55207329 155.17668579 -63.55207329 155.17668579 -64.78779602 155.19628906 C-70.03186716 155.14800872 -73.01561757 154.17779328 -77.16015625 150.6875 C-81.36536281 145.71563415 -83.80963914 139.3386201 -86.3046875 133.38671875 C-86.67816818 132.51086624 -87.05164886 131.63501373 -87.43644714 130.73262024 C-88.62149151 127.94937736 -89.79720465 125.16230567 -90.97265625 122.375 C-91.7487394 120.54856899 -92.5254279 118.72239509 -93.30273438 116.89648438 C-94.84322202 113.27689942 -96.37120467 109.65235192 -97.89306641 106.02490234 C-99.38714783 102.47632765 -100.93017314 98.95574878 -102.51708984 95.44775391 C-102.89032883 94.60694778 -103.26356781 93.76614166 -103.64811707 92.89985657 C-104.34495444 91.33277758 -105.05549634 89.77167993 -105.78315735 88.21867371 C-108.19384428 82.73545382 -108.92806255 77.66329955 -108.16015625 71.6875 C-106.13898134 67.95610016 -104.84047262 66.96224315 -100.91015625 65.375 C-100.00265625 65.148125 -99.09515625 64.92125 -98.16015625 64.6875 C-98.13953125 63.65625 -98.11890625 62.625 -98.09765625 61.5625 C-96.90903517 52.28465212 -91.25589731 42.58754667 -84.4140625 36.375 C-74.14626736 28.6875 -74.14626736 28.6875 -68.16015625 28.6875 C-68.11890625 27.45 -68.07765625 26.2125 -68.03515625 24.9375 C-66.91683221 15.32595825 -61.71130123 7.14284602 -54.7109375 0.66015625 C-38.69182929 -11.72828119 -16.11290401 -13.18028958 0 0 Z M-54.16015625 12.6875 C-57.68295655 17.80257303 -59.22432117 22.42264312 -59.91015625 28.5625 C-60.61723001 33.27412232 -60.61723001 33.27412232 -62.9609375 35.05859375 C-65.22265625 36 -65.22265625 36 -67.65234375 36.8125 C-75.71046702 39.62405703 -82.31996853 45.5468487 -86.4140625 52.95703125 C-88.50187918 57.34362866 -89.16015625 59.64143256 -89.16015625 64.6875 C-47.91015625 64.6875 -6.66015625 64.6875 35.83984375 64.6875 C34.39612159 54.58144488 31.25552602 47.91811072 23.3046875 41.3828125 C17.4486326 37.35503464 11.02844963 34.60242741 3.83984375 35.6875 C-2.44301497 38.28730361 -5.03377249 41.75169304 -8.16015625 47.6875 C-9.81015625 47.3575 -11.46015625 47.0275 -13.16015625 46.6875 C-12.71416962 42.04923909 -12.19169023 39.24625728 -9.16015625 35.6875 C-9.16015625 35.0275 -9.16015625 34.3675 -9.16015625 33.6875 C-5.99687175 32.0154782 -2.77796445 30.76528864 0.58984375 29.5625 C1.5746875 29.20929688 2.55953125 28.85609375 3.57421875 28.4921875 C4.321875 28.22664063 5.06953125 27.96109375 5.83984375 27.6875 C5.51678232 20.25708719 2.15213154 14.31708639 -2.83203125 8.85546875 C-10.96046384 1.49140712 -19.49265901 -0.81479921 -30.30078125 -0.578125 C-40.46435369 0.12139213 -47.49991289 5.16367268 -54.16015625 12.6875 Z M-100.16015625 74.6875 C-99.59075293 78.82301126 -98.65317723 82.33200656 -97.01464844 86.16699219 C-96.57038513 87.21538269 -96.12612183 88.26377319 -95.668396 89.34393311 C-95.18614563 90.46277893 -94.70389526 91.58162476 -94.20703125 92.734375 C-93.70979553 93.900755 -93.21255981 95.06713501 -92.70025635 96.26885986 C-91.64749568 98.73466734 -90.59232951 101.19925814 -89.53271484 103.66210938 C-88.18701672 106.79023268 -86.8497416 109.9218645 -85.51548386 113.05488205 C-84.22871028 116.07456371 -82.93654806 119.09193381 -81.64453125 122.109375 C-81.17037781 123.2201239 -80.69622437 124.3308728 -80.20770264 125.47528076 C-78.88087429 128.55658997 -77.53148041 131.6257529 -76.16015625 134.6875 C-75.72707153 135.65578735 -75.29398682 136.62407471 -74.84777832 137.6217041 C-74.21398254 138.97153381 -74.21398254 138.97153381 -73.56738281 140.34863281 C-73.19921448 141.14005676 -72.83104614 141.93148071 -72.45172119 142.74688721 C-70.92661991 145.03839495 -69.71448867 145.73313318 -67.16015625 146.6875 C-65.02728252 146.92670955 -65.02728252 146.92670955 -62.91015625 146.8125 C-61.67265625 146.77125 -60.43515625 146.73 -59.16015625 146.6875 C-61.06944966 136.8409756 -63.17767275 127.07137747 -65.515625 117.31640625 C-65.82545566 116.01510616 -66.13504638 114.71374892 -66.44441223 113.41233826 C-67.24591086 110.04344793 -68.0505899 106.67532574 -68.85601807 103.30737305 C-69.68269176 99.84796684 -70.50623898 96.3878165 -71.33007812 92.92773438 C-72.93710786 86.18027318 -74.54751098 79.43362123 -76.16015625 72.6875 C-79.41008071 72.62930576 -82.6598706 72.59383884 -85.91015625 72.5625 C-86.83054688 72.54574219 -87.7509375 72.52898437 -88.69921875 72.51171875 C-89.58867187 72.50527344 -90.478125 72.49882812 -91.39453125 72.4921875 C-92.21147461 72.48171387 -93.02841797 72.47124023 -93.87011719 72.46044922 C-96.37903143 72.70920084 -97.9941125 73.43049871 -100.16015625 74.6875 Z M-68.16015625 72.6875 C-66.11186497 81.45075163 -64.0605345 90.21328467 -62.00535774 98.97492409 C-61.05107656 103.04364631 -60.09783037 107.11260514 -59.14697266 111.18212891 C-58.22871585 115.11195209 -57.30771014 119.04112185 -56.38482285 122.96986008 C-56.03380944 124.46627393 -55.68377467 125.96291769 -55.33475113 127.45979691 C-54.84443585 129.56187476 -54.35059675 131.66309631 -53.85595703 133.76416016 C-53.43626144 135.5561937 -53.43626144 135.5561937 -53.00808716 137.38442993 C-52.19651863 140.54585226 -51.23319145 143.60611797 -50.16015625 146.6875 C-47.19015625 146.6875 -44.22015625 146.6875 -41.16015625 146.6875 C-41.04453358 137.52827261 -41.37949959 128.46514442 -42 119.328125 C-42.08641251 118.0171283 -42.17282501 116.70613159 -42.26185608 115.35540771 C-42.44316253 112.61239311 -42.62754886 109.86960844 -42.81420898 107.12695312 C-43.05350715 103.60674844 -43.28457995 100.08605704 -43.51341915 96.56515884 C-43.73366625 93.19417979 -43.96089024 89.82368238 -44.1875 86.453125 C-44.26983383 85.18664124 -44.35216766 83.92015747 -44.43699646 82.61529541 C-44.51700394 81.45608582 -44.59701141 80.29687622 -44.67944336 79.10253906 C-44.74828232 78.07807678 -44.81712128 77.0536145 -44.88804626 75.99810791 C-44.91353382 73.72760491 -44.91353382 73.72760491 -46.16015625 72.6875 C-47.79488507 72.60049658 -49.4332968 72.58048937 -51.0703125 72.58984375 C-52.5543457 72.59467773 -52.5543457 72.59467773 -54.06835938 72.59960938 C-55.62973633 72.61217773 -55.62973633 72.61217773 -57.22265625 72.625 C-58.78983398 72.63176758 -58.78983398 72.63176758 -60.38867188 72.63867188 C-62.97922285 72.65050087 -65.56966184 72.66698311 -68.16015625 72.6875 Z M-37.16015625 72.6875 C-36.55594871 86.8689482 -35.81445342 101.026896 -34.85791016 115.1887207 C-34.65674118 118.17570748 -34.46101735 121.16302097 -34.265625 124.15039062 C-34.13703935 126.07814641 -34.00814506 128.00588164 -33.87890625 129.93359375 C-33.82158325 130.81276962 -33.76426025 131.6919455 -33.7052002 132.59776306 C-33.38081717 137.33783587 -32.89917518 141.99369895 -32.16015625 146.6875 C-28.53015625 146.6875 -24.90015625 146.6875 -21.16015625 146.6875 C-19.77166605 132.91043325 -18.6287529 119.13410715 -17.72753906 105.31665039 C-17.53229443 102.3312411 -17.33086512 99.34628999 -17.12890625 96.36132812 C-17.00094028 94.43231563 -16.87332285 92.50327998 -16.74609375 90.57421875 C-16.68674652 89.69706711 -16.62739929 88.81991547 -16.56625366 87.91618347 C-16.51264679 87.08363541 -16.45903992 86.25108734 -16.40380859 85.39331055 C-16.35654633 84.67499557 -16.30928406 83.9566806 -16.2605896 83.21659851 C-16.12131891 79.70950355 -16.16015625 76.19735917 -16.16015625 72.6875 C-23.09015625 72.6875 -30.02015625 72.6875 -37.16015625 72.6875 Z M-7.16015625 72.6875 C-8.43414692 75.23548134 -8.44566758 77.27594688 -8.64086914 80.12426758 C-8.72087662 81.26338089 -8.80088409 82.4024942 -8.88331604 83.5761261 C-8.96564987 84.8155748 -9.0479837 86.0550235 -9.1328125 87.33203125 C-9.22018173 88.60793625 -9.30755096 89.88384125 -9.39756775 91.19841003 C-9.58271401 93.90935435 -9.76472779 96.62048659 -9.94458008 99.33178711 C-10.17290926 102.7701086 -10.40889841 106.20785043 -10.64736271 109.64548206 C-10.87598219 112.95737776 -11.09781655 116.26971851 -11.3203125 119.58203125 C-11.40467056 120.79921341 -11.48902863 122.01639557 -11.57594299 123.27046204 C-12.08780888 131.08802884 -12.25866856 138.85391272 -12.16015625 146.6875 C-9.19015625 146.6875 -6.22015625 146.6875 -3.16015625 146.6875 C1.40258641 131.12540484 5.02767191 115.36482385 8.65234375 99.5625 C9.25504051 96.94642546 9.85895149 94.33063172 10.46289062 91.71484375 C11.92606863 85.37335419 13.38433399 79.03075378 14.83984375 72.6875 C7.57984375 72.6875 0.31984375 72.6875 -7.16015625 72.6875 Z M23.83984375 72.6875 C21.08631614 80.4267609 19.14909877 88.28858386 17.265625 96.27734375 C16.93389906 97.67223393 16.60187792 99.06705393 16.26957703 100.46180725 C15.57879871 103.36497651 14.89074714 106.26877323 14.20483398 109.1730957 C13.32482797 112.89878225 12.43917871 116.62309916 11.55167866 120.3470068 C10.86791125 123.21782181 10.1864482 126.08917967 9.50575829 128.96072578 C9.17977505 130.3352148 8.85322056 131.70956846 8.52608681 133.0837841 C8.07153558 134.99534473 7.62027983 136.90768809 7.16918945 138.82006836 C6.91176468 139.90766953 6.6543399 140.99527069 6.38911438 142.11582947 C5.77021908 144.57520178 5.77021908 144.57520178 5.83984375 146.6875 C12.87710557 147.13566424 12.87710557 147.13566424 18.83984375 143.6875 C20.76520548 140.4380699 22.15437134 136.98805342 23.58984375 133.5 C24.0394043 132.4387793 24.48896484 131.37755859 24.95214844 130.28417969 C25.70815096 128.49857847 26.46384038 126.71283163 27.2119751 124.92391968 C29.15940194 120.26833198 31.16186827 115.63879323 33.18621826 111.01615906 C34.76962934 107.39789795 36.3412029 103.77455691 37.91125488 100.15048218 C38.69599047 98.34410701 39.48463991 96.53942701 40.27722168 94.73648071 C41.39944991 92.17860943 42.50431598 89.61387626 43.60546875 87.046875 C43.94759399 86.27697739 44.28971924 85.50707977 44.64221191 84.71385193 C46.35429805 80.67300448 47.38345779 78.03495261 45.83984375 73.6875 C43.0157261 72.74612745 41.31066343 72.57024618 38.390625 72.58984375 C37.54306641 72.59306641 36.69550781 72.59628906 35.82226562 72.59960938 C34.94119141 72.60798828 34.06011719 72.61636719 33.15234375 72.625 C31.81333008 72.63176758 31.81333008 72.63176758 30.44726562 72.63867188 C28.24472046 72.65045019 26.04232762 72.66775648 23.83984375 72.6875 Z " fill="#010101" transform="translate(277.16015625,120.3125)"/>
<path d="M0 0 C8.94059494 6.50706022 13.31813347 12.55838919 15.375 23.3125 C16.48012283 31.91453719 15.69645817 39.86139601 10.59765625 47.0859375 C4.50825915 54.38130322 -1.39008721 58.87018593 -11 60 C-20.18153652 60.36868864 -28.09813271 58.3284413 -35.0703125 52.171875 C-42.01758207 44.78858432 -44.4062558 35.97856079 -44.2734375 26.00390625 C-43.4630422 17.10113498 -39.38145917 9.20696615 -33 3 C-23.34544698 -3.81689723 -10.73033797 -5.84618413 0 0 Z M-30.875 15.125 C-34.25280081 20.42148358 -35.48596067 26.51310692 -34.62109375 32.71875 C-32.97773679 38.95411585 -30.58833236 43.43690545 -25.25 47.25 C-20.04123864 50.27444208 -14.92904709 51.08400702 -9 50 C-2.70412141 47.41792065 1.60917413 42.93139324 5.109375 37.17578125 C7.17082456 32.13969613 6.76627333 25.87594989 5.3828125 20.68359375 C2.78153463 14.80194334 -2.25312566 9.87343717 -8 7 C-17.80037044 5.94457549 -24.47828475 7.43040049 -30.875 15.125 Z " fill="#010101" transform="translate(344,305)"/>
<path d="M0 0 C3.57813352 3.00359582 5.60970124 5.80614498 7.0625 10.25 C7 13 7 13 5.875 14.9375 C4 16 4 16 1.5625 16.0625 C-1 15 -1 15 -2.8125 12.125 C-5.65228035 8.06817093 -8.18806233 6.87258729 -13 6 C-18.36516466 5.86587088 -22.64793783 6.7029832 -27 10 C-27.66 10.66 -28.32 11.32 -29 12 C-29.06546898 14.51047485 -29.06546898 14.51047485 -28 17 C-22.73233365 21.23608169 -15.55352963 21.75311993 -9.10351562 23.01757812 C-2.00634719 24.50437477 2.47336635 26.14091456 7.375 31.6875 C9.7407786 36.51004868 10.07081604 40.82556902 8.33984375 45.95703125 C5.51415107 51.57171929 0.96810754 54.81275699 -4.7734375 57.109375 C-12.42483369 59.22138267 -21.20236538 59.32422927 -28.5 56 C-33.18812644 53.22010593 -37.34167897 49.82503475 -40 45 C-40.27052105 42.24276625 -39.84320714 40.69826285 -39 38 C-36.70284991 37.17958925 -35.37315341 36.8950506 -33 37.5625 C-31 39 -31 39 -29.1875 41.9375 C-26.59960477 45.56055332 -24.2500912 47.0322373 -20 48 C-13.99995566 48.68463263 -9.12826149 48.50222736 -4 45 C-1.99821137 43.19504569 -1.99821137 43.19504569 -1 41 C-0.8423415 38.87957244 -0.8423415 38.87957244 -2 37 C-7.36105538 32.80923737 -14.39322522 32.25731822 -20.89648438 30.98242188 C-27.87105049 29.52130938 -31.98345057 27.61963503 -37.375 22.9375 C-39.89216289 18.38724401 -39.72563947 14.07947632 -39 9 C-36.08898339 2.71220413 -31.0315198 -0.77573239 -24.75 -3.3125 C-15.88249073 -4.93821003 -7.90599448 -4.71318902 0 0 Z " fill="#010101" transform="translate(409,306)"/>
<path d="M0 0 C2.48044315 3.72066472 2.44381173 6.86540474 2.625 11.1875 C2.66367188 11.93708984 2.70234375 12.68667969 2.7421875 13.45898438 C2.83628216 15.30559199 2.91922319 17.1527619 3 19 C3.598125 18.525625 4.19625 18.05125 4.8125 17.5625 C9.6885703 14.07959264 15.24681682 14.4483249 21 15 C27.15544778 16.7436934 31.67114145 20.59318937 35 26 C38.40313431 33.39001793 38.82060064 40.46931048 36.27734375 48.1953125 C33.67194658 54.12794847 29.45771032 58.35589264 23.609375 61.13671875 C18.36164382 62.87286934 12.60857521 63.17344998 7.5078125 60.87890625 C5.58324533 59.6700589 3.77188783 58.4215719 2 57 C1.01 59.475 1.01 59.475 0 62 C-2.875 62.1875 -2.875 62.1875 -6 62 C-8.24194697 58.63707954 -8.2561437 57.50095115 -8.2746582 53.56640625 C-8.28419022 52.45515381 -8.29372223 51.34390137 -8.30354309 50.19897461 C-8.30263168 48.99893799 -8.30172028 47.79890137 -8.30078125 46.5625 C-8.30506638 45.33088135 -8.3093515 44.0992627 -8.31376648 42.83032227 C-8.32098636 39.55661868 -8.31788006 36.28309848 -8.31219482 33.00939941 C-8.31249971 31.00192 -8.32254271 28.99473508 -8.33618164 26.98730469 C-8.36060625 23.13722798 -8.36483962 19.28764432 -8.36328125 15.4375 C-8.372491 14.23746338 -8.38170074 13.03742676 -8.39118958 11.80102539 C-8.38496078 10.68977295 -8.37873199 9.57852051 -8.37231445 8.43359375 C-8.37294388 7.45447021 -8.3735733 6.47534668 -8.3742218 5.46655273 C-8 3 -8 3 -6.6368866 1.18383789 C-4.3135078 -0.49648857 -2.79329687 -0.42973798 0 0 Z M7 27 C3.64552422 30.72719531 2.13198269 33.25122932 1.75 38.3125 C2.10287803 43.51745094 3.62057068 46.54174615 7.1875 50.3125 C10.80834533 52.4850072 13.78835032 53.1903103 18 53 C22.19847336 51.70816204 23.71029391 50.38119222 26.375 46.875 C28.49305949 42.66557925 28.84930304 38.61650862 28 34 C26.12424133 30.50720799 24.02217269 27.56776486 21 25 C15.74250401 23.4444113 11.29826824 23.31577008 7 27 Z " fill="#000000" transform="translate(183,302)"/>
<path d="M0 0 C3.375 2.0625 3.375 2.0625 4.375 3.0625 C5.035 1.4125 5.695 -0.2375 6.375 -1.9375 C9.25 -2.125 9.25 -2.125 12.375 -1.9375 C14.39368247 1.09052371 14.62900102 1.70325984 14.66552734 5.10327148 C14.67828705 5.91098495 14.69104675 6.71869843 14.70419312 7.55088806 C14.70641876 8.41968094 14.70864441 9.28847382 14.7109375 10.18359375 C14.7175943 11.07990005 14.7242511 11.97620636 14.73110962 12.89967346 C14.7412337 14.79515531 14.74592671 16.69067278 14.74560547 18.58618164 C14.74997856 21.48578602 14.78629963 24.38386812 14.82421875 27.28320312 C14.83008698 29.12499479 14.83405633 30.96679369 14.8359375 32.80859375 C14.85030853 33.6753624 14.86467957 34.54213104 14.87948608 35.43516541 C14.83361745 41.47965296 14.83361745 41.47965296 12.34619141 44.64086914 C11.69569824 45.11000732 11.04520508 45.57914551 10.375 46.0625 C7.9375 45.3125 7.9375 45.3125 5.375 44.0625 C4.5625 41.9375 4.5625 41.9375 4.375 40.0625 C3.59125 40.701875 2.8075 41.34125 2 42 C-3.59006973 46.39219765 -9.74472 45.72028501 -16.625 45.0625 C-23.52199096 42.65179626 -28.79101343 36.73047314 -32 30.3125 C-33.59903308 21.99752796 -33.48641063 14.25305445 -28.625 7.0625 C-20.95549115 -1.31151488 -10.81857153 -5.36055346 0 0 Z M-19.625 11.0625 C-22.41209592 14.37422574 -23.51364558 17.28301909 -24.125 21.5625 C-23.30518149 27.30122959 -21.19232952 30.67327611 -16.875 34.5 C-12.8884876 36.4165925 -9.96481922 36.91310457 -5.625 36.0625 C-0.82857942 33.66428971 1.97678971 30.85892058 4.375 26.0625 C5.32338947 20.73446925 4.37231458 16.61014971 1.375 12.0625 C-2.00200721 9.01495691 -4.25730987 7.19658727 -8.8125 6.75 C-13.35439085 7.12228614 -16.14763776 8.13600703 -19.625 11.0625 Z " fill="#010101" transform="translate(149.625,318.9375)"/>
<path d="M0 0 C4.54882262 3.27515229 8.54018627 7.8117511 9.85546875 13.3359375 C10.64078898 19.40334309 10.64078898 19.40334309 9.85546875 22.3359375 C6.0507129 25.18406654 3.15872613 25.73633424 -1.5390625 25.84765625 C-2.74111328 25.88310547 -3.94316406 25.91855469 -5.18164062 25.95507812 C-6.42751953 25.97763672 -7.67339844 26.00019531 -8.95703125 26.0234375 C-10.22224609 26.05759766 -11.48746094 26.09175781 -12.79101562 26.12695312 C-15.9087657 26.20930879 -19.02623884 26.27850279 -22.14453125 26.3359375 C-19.66252588 30.76290614 -18.08128654 32.6903524 -13.14453125 34.3359375 C-7.79502381 34.75493353 -4.17621373 33.77089703 -0.08203125 30.2734375 C0.91505609 29.31252566 1.90115803 28.33934459 2.85546875 27.3359375 C5.29296875 28.0234375 5.29296875 28.0234375 7.85546875 29.3359375 C8.98046875 31.5859375 8.98046875 31.5859375 8.85546875 34.3359375 C5.61881767 39.45193437 1.70277362 42.62124184 -4.14453125 44.3359375 C-11.51627743 45.30825395 -18.09541571 44.92352177 -24.14453125 40.3359375 C-30.00161424 35.065897 -33.15188699 28.84229044 -33.58203125 20.9609375 C-33.26271978 13.5529114 -30.73583138 7.38336406 -25.26953125 2.3359375 C-17.64052472 -3.63520021 -8.55185721 -4.81362022 0 0 Z M-20.14453125 10.3359375 C-20.80453125 11.9859375 -21.46453125 13.6359375 -22.14453125 15.3359375 C-14.88453125 15.3359375 -7.62453125 15.3359375 -0.14453125 15.3359375 C-2.04570325 10.11121149 -2.04570325 10.11121149 -6.14453125 7.3359375 C-12.33835952 5.58296724 -15.17654316 6.63429931 -20.14453125 10.3359375 Z " fill="#010101" transform="translate(282.14453125,319.6640625)"/>
<path d="M0 0 C2.375 0.75 2.375 0.75 3.375 1.75 C3.44726502 3.60287502 3.4588122 5.45833878 3.4375 7.3125 C3.42847656 8.32441406 3.41945313 9.33632813 3.41015625 10.37890625 C3.39855469 11.16136719 3.38695313 11.94382812 3.375 12.75 C5.293125 12.688125 5.293125 12.688125 7.25 12.625 C9.4296875 12.5546875 9.4296875 12.5546875 11.375 12.75 C13.375 14.75 13.375 14.75 13.6875 17.25 C13.584375 18.075 13.48125 18.9 13.375 19.75 C10.375 21.75 10.375 21.75 3.375 21.75 C3.705 30.99 4.035 40.23 4.375 49.75 C6.025 49.09 7.675 48.43 9.375 47.75 C12.75432259 48.06435559 13.94979454 48.32479454 16.375 50.75 C16.21916387 53.7888046 15.88981092 55.26098826 13.66015625 57.37890625 C9.52533657 59.85979806 5.02959666 59.50163116 0.375 58.75 C-3.03811667 56.22429367 -4.29137768 54.75086696 -5.625 50.75 C-5.70858958 48.53910055 -5.73231764 46.32573922 -5.72265625 44.11328125 C-5.71943359 42.81455078 -5.71621094 41.51582031 -5.71289062 40.17773438 C-5.70453531 38.80598892 -5.69607037 37.43424413 -5.6875 36.0625 C-5.68248335 34.67903805 -5.67792073 33.29557437 -5.67382812 31.91210938 C-5.66202529 28.52469605 -5.64556019 25.13736967 -5.625 21.75 C-7.0171875 21.811875 -7.0171875 21.811875 -8.4375 21.875 C-11.625 21.75 -11.625 21.75 -14.625 19.75 C-14.9375 17.25 -14.9375 17.25 -14.625 14.75 C-12.625 12.75 -12.625 12.75 -9 12.625 C-7.329375 12.686875 -7.329375 12.686875 -5.625 12.75 C-5.67720703 11.71939453 -5.67720703 11.71939453 -5.73046875 10.66796875 C-5.77107422 9.31638672 -5.77107422 9.31638672 -5.8125 7.9375 C-5.84730469 7.04417969 -5.88210937 6.15085937 -5.91796875 5.23046875 C-5.625 2.75 -5.625 2.75 -4.27734375 0.91015625 C-2.625 -0.25 -2.625 -0.25 0 0 Z " fill="#000000" transform="translate(93.625,305.25)"/>
<path d="M0 0 C2.5 0.25 2.5 0.25 4.5 2.25 C4.74050903 4.7303772 4.74050903 4.7303772 4.72705078 7.89306641 C4.72682419 9.66467636 4.72682419 9.66467636 4.72659302 11.47207642 C4.71627045 12.75230682 4.70594788 14.03253723 4.6953125 15.3515625 C4.6924826 16.65829926 4.68965271 17.96503601 4.68673706 19.31137085 C4.67909776 22.78682081 4.6594469 26.26210383 4.6373291 29.73748779 C4.61687696 33.28330222 4.60773671 36.8291436 4.59765625 40.375 C4.57620116 47.33340195 4.54206173 54.29169296 4.5 61.25 C1.125 61.875 1.125 61.875 -2.5 62.25 C-5.14015811 59.60984189 -4.75304253 58.41377491 -4.75878906 54.73046875 C-4.76509338 53.57587158 -4.77139771 52.42127441 -4.77789307 51.23168945 C-4.7738446 49.97960693 -4.76979614 48.72752441 -4.765625 47.4375 C-4.76753845 46.15770264 -4.7694519 44.87790527 -4.77142334 43.55932617 C-4.77437382 40.84907207 -4.77007955 38.13894973 -4.76074219 35.42871094 C-4.74934753 31.95150769 -4.75590743 28.47461318 -4.76788712 24.99742126 C-4.77684425 21.68575596 -4.77057635 18.37417409 -4.765625 15.0625 C-4.76967346 13.81041748 -4.77372192 12.55833496 -4.77789307 11.26831055 C-4.77158875 10.11371338 -4.76528442 8.95911621 -4.75878906 7.76953125 C-4.75719788 6.74964111 -4.75560669 5.72975098 -4.75396729 4.67895508 C-4.39281756 1.22490213 -3.44348108 0.34434811 0 0 Z " fill="#000000" transform="translate(234.5,301.75)"/>
</svg>
