<?xml version="1.0" encoding="UTF-8"?>
<svg version="1.1" xmlns="http://www.w3.org/2000/svg" width="500" height="500">
<path d="M0 0 C4.23524695 3.43153263 8.1449166 7.15054445 12 11 C13.09248047 12.07507813 13.09248047 12.07507813 14.20703125 13.171875 C24.51028104 23.98317458 33.49895586 39.67594698 35.76171875 54.51171875 C36.45921638 58.96468047 37.20267939 62.83613256 39 67 C42.35556469 69.43840641 45.38936245 70.56973952 49.33203125 71.828125 C68.29424309 77.88633965 86.97264362 97.54711099 96 115 C101.47136899 126.43319349 105.20214326 138.31682906 106 151 C107.134375 151.20625 108.26875 151.4125 109.4375 151.625 C117.75624973 153.75990037 123.26371833 158.50875362 127.80859375 165.65625 C131.60832754 173.13113615 132.72924453 181.03837611 130.3671875 189.18164062 C128.58137562 194.29201005 126.43163406 199.24458236 124.24121094 204.19238281 C122.93049858 207.15721211 121.65430259 210.13534119 120.3828125 213.1171875 C113.71274567 228.68395003 113.71274567 228.68395003 111.046875 233.8125 C108.41383416 238.99229533 106.37572494 244.41639336 104.2571106 249.82156372 C95.6492979 271.74652208 86.29285114 293.34455375 76.58764648 314.80395508 C74.22909681 320.02035643 71.88097814 325.23604767 69.6484375 330.5078125 C64.11810396 343.53027082 58.03479803 354.42306426 44.43275452 360.13562012 C36.10553723 363.04829966 27.53643657 362.55893154 18.82592773 362.51757812 C16.89966301 362.52300615 14.97340245 362.53013261 13.04714966 362.53881836 C7.84264554 362.55697245 2.63846046 362.55001728 -2.56604886 362.53730202 C-8.0266205 362.52713468 -13.48716587 362.5365779 -18.94773865 362.54284668 C-28.11454138 362.55011161 -37.28121495 362.54056504 -46.44799805 362.52148438 C-57.03009942 362.49971142 -67.61189254 362.50677482 -78.19398648 362.52879 C-87.29834992 362.54696913 -96.40262083 362.54949022 -105.50699657 362.53903532 C-110.93648926 362.53281506 -116.36583725 362.53192447 -121.79532051 362.54518127 C-126.90004844 362.55677597 -132.00438062 362.54864798 -137.10906601 362.52560425 C-138.97704729 362.52033675 -140.84506215 362.52179719 -142.71302986 362.53065491 C-154.66896298 362.58210174 -165.0382398 362.46043992 -174.25 353.75 C-175.01828125 353.04359375 -175.7865625 352.3371875 -176.578125 351.609375 C-183.95002714 343.66674495 -187.97754844 334.92626486 -192.1875 325.0625 C-192.85389284 323.5219439 -193.521305 321.98182835 -194.18969727 320.44213867 C-195.52219539 317.37022707 -196.84973782 314.29624726 -198.17382812 311.22070312 C-199.70943801 307.66122387 -201.27452923 304.11601304 -202.859375 300.578125 C-212.20675027 279.70208718 -220.87377935 258.50778853 -229.28515625 237.23828125 C-230.72329388 233.62957446 -232.30800748 230.12354703 -234 226.625 C-237.66524946 218.92397614 -241.0191132 211.08911073 -244.375 203.25 C-244.78105469 202.30317352 -244.78105469 202.30317352 -245.1953125 201.33721924 C-253.61883332 181.68084651 -253.61883332 181.68084651 -249.71875 170.2421875 C-246.66543763 163.31502495 -243.04873026 157.3428259 -236 154 C-232.7073406 152.77997313 -229.41839005 151.79855833 -226 151 C-225.97421875 150.45214844 -225.9484375 149.90429688 -225.921875 149.33984375 C-224.04953501 123.169637 -210.09767652 102.16663948 -191 85 C-187.79999863 82.39653068 -184.52225326 80.14205998 -181 78 C-180.03320312 77.39671875 -179.06640625 76.7934375 -178.0703125 76.171875 C-173.19958298 73.22217112 -169.03846251 70.96889164 -163.5 69.625 C-160.96390011 68.84008874 -160.96390011 68.84008874 -159 67 C-157.47817905 62.89750074 -156.68097282 58.87511086 -155.90234375 54.58203125 C-152.84311779 37.8351345 -142.98722748 21.83280265 -131 10 C-130.10667969 9.09636719 -129.21335937 8.19273438 -128.29296875 7.26171875 C-93.7392706 -26.67526372 -38.1967089 -28.99241019 0 0 Z M-117 27 C-129.42121753 41.63879606 -135.70799349 58.53996759 -137.08203125 77.6171875 C-138.24168189 81.89062346 -140.28567322 83.83526264 -144 86 C-147.48046875 87.37109375 -147.48046875 87.37109375 -151.1875 88.4375 C-172.2471247 94.98674957 -187.5786801 109.83383341 -198 129 C-201.39080258 136.30776417 -202.16812507 141.68125074 -203 150 C-108.29 150 -13.58 150 84 150 C77.91735971 125.66943885 67.57739637 107.90628437 45.828125 94.6015625 C34.54452485 88.21167844 23.13208362 83.85476137 10.125 87 C0.48227685 90.17468116 -6.20920881 97.28257932 -11 106 C-12.02723821 108.10873195 -13.02921898 110.21173045 -13.9453125 112.37109375 C-15.32681219 114.50474328 -16.65150013 115.09434031 -19 116 C-23.63199447 116.49276537 -26.30966775 115.87025842 -30 113 C-32.29844539 109.28169585 -32.20435964 106.70703641 -31.58984375 102.48828125 C-28.56725815 89.73737377 -17.60565972 78.36210037 -6.69921875 71.56640625 C-0.42126446 68.19213098 6.0537195 66.46802835 13 65 C14.46207683 60.37452057 13.37458178 56.98913042 11.6875 52.625 C11.41969727 51.92745605 11.15189453 51.22991211 10.87597656 50.51123047 C2.53991226 29.97638617 -12.74581753 16.2117796 -32.7890625 7.28515625 C-62.5479188 -4.62562687 -95.22105051 3.88344574 -117 27 Z M57 172 C50.89134931 196.19797446 44.9041575 220.4208836 39.11230469 244.69674683 C35.9061249 258.13175653 32.63606173 271.5467316 29.25 284.9375 C26.17398264 297.11479291 23.24598676 309.32066605 20.4375 321.5625 C20.26101929 322.32754852 20.08453857 323.09259705 19.90270996 323.88082886 C19.40911786 326.02515729 18.92037012 328.17052159 18.43359375 330.31640625 C18.15572021 331.53787354 17.87784668 332.75934082 17.59155273 334.01782227 C16.90271419 336.98373038 16.90271419 336.98373038 17 340 C19.5215021 340.08172936 22.04029917 340.14083373 24.5625 340.1875 C25.26697266 340.21263672 25.97144531 340.23777344 26.69726562 340.26367188 C31.78270605 340.3339775 35.47883935 339.56432061 40 337 C44.56058655 332.53317001 46.90281161 327.4872743 49.4375 321.6875 C49.85725098 320.74527588 50.27700195 319.80305176 50.70947266 318.83227539 C59.57950212 298.78613648 67.97428283 278.53016961 76.31103516 258.25805664 C81.17945651 246.47139463 86.2536512 234.77531216 91.33251953 223.078125 C92.00297582 221.53387419 92.67338692 219.98960377 93.34375 218.4453125 C93.66584442 217.70331604 93.98793884 216.96131958 94.3197937 216.19683838 C97.13413848 209.70592805 99.90023201 203.19547729 102.61816406 196.66357422 C102.88338867 196.02693848 103.14861328 195.39030273 103.421875 194.734375 C103.67130859 194.13383301 103.92074219 193.53329102 104.17773438 192.91455078 C104.79311985 191.48169659 105.43414516 190.05980683 106.08789062 188.64404297 C106.45591797 187.84627441 106.82394531 187.04850586 107.203125 186.2265625 C107.54504883 185.50033691 107.88697266 184.77411133 108.23925781 184.02587891 C109.37985099 180.98844559 109.14254297 178.9991753 108 176 C104.58338799 172.69727505 101.26918793 171.87315419 96.62036133 171.88647461 C95.29933159 171.88658791 95.29933159 171.88658791 93.95161438 171.88670349 C92.53117073 171.89444542 92.53117073 171.89444542 91.08203125 171.90234375 C90.10965012 171.9037587 89.13726898 171.90517365 88.13542175 171.90663147 C85.02774996 171.91223183 81.92015004 171.92478438 78.8125 171.9375 C76.70638125 171.94251495 74.60026137 171.94707787 72.49414062 171.95117188 C67.32939936 171.96220138 62.16471187 171.97946625 57 172 Z M-228 177 C-229.03076337 182.32410862 -226.75997318 186.46290933 -224.51171875 191.15625 C-223.95651299 192.35422462 -223.95651299 192.35422462 -223.39009094 193.57640076 C-222.58628779 195.31068615 -221.77793666 197.04286929 -220.96557617 198.77316284 C-218.76335714 203.47170337 -216.60396153 208.18969029 -214.44921875 212.91015625 C-213.999487 213.89528702 -213.54975525 214.88041779 -213.08639526 215.895401 C-208.13616184 226.80383217 -203.54175927 237.8540174 -199 248.9375 C-198.39792725 250.40526382 -198.39792725 250.40526382 -197.78369141 251.90267944 C-195.17698017 258.26353259 -192.5849571 264.6302798 -190 271 C-189.44323407 272.37078344 -188.88643387 273.74155297 -188.32958984 275.11230469 C-187.37985659 277.45093238 -186.4302987 279.78963129 -185.48095703 282.12841797 C-183.33020317 287.42289359 -181.1704622 292.71357222 -179 298 C-178.72371765 298.67369629 -178.4474353 299.34739258 -178.16278076 300.04150391 C-176.30842517 304.55892333 -174.44013868 309.07026111 -172.55703735 313.57577515 C-171.94394819 315.04708073 -171.33444787 316.51988782 -170.72885132 317.99429321 C-169.8840385 320.04875864 -169.02572037 322.09708398 -168.1640625 324.14453125 C-167.67373535 325.32378174 -167.1834082 326.50303223 -166.67822266 327.71801758 C-164.18493494 332.59396561 -161.56740303 336.11099733 -156.71484375 338.86328125 C-152.46803963 340.16277652 -148.95896789 340.34437305 -144.5625 340.1875 C-143.83095703 340.17396484 -143.09941406 340.16042969 -142.34570312 340.14648438 C-140.56347578 340.11153874 -138.78163427 340.05774805 -137 340 C-138.27506068 332.60451396 -139.78794632 325.30446041 -141.5390625 318.0078125 C-141.78111923 316.99082779 -142.02317596 315.97384308 -142.27256775 314.92604065 C-143.05249272 311.65799926 -143.83794899 308.39133211 -144.625 305.125 C-144.8922287 304.01371735 -145.1594574 302.90243469 -145.43478394 301.75747681 C-148.66176083 288.36126317 -151.9328503 274.98098215 -155.5625 261.6875 C-155.87203613 260.54104004 -156.18157227 259.39458008 -156.50048828 258.21337891 C-156.79036621 257.17745605 -157.08024414 256.1415332 -157.37890625 255.07421875 C-157.6219751 254.20369873 -157.86504395 253.33317871 -158.11547852 252.4362793 C-159.10311523 249.71598484 -160.48307238 247.45726201 -162 245 C-162.4765625 242.90234375 -162.4765625 242.90234375 -162.625 240.9375 C-162.90324143 238.01596496 -163.26191101 235.77521459 -164 233 C-164.26296875 231.91332031 -164.5259375 230.82664062 -164.796875 229.70703125 C-165.11377338 228.40865621 -165.43153261 227.11049108 -165.75 225.8125 C-165.92047852 225.11632568 -166.09095703 224.42015137 -166.26660156 223.70288086 C-167.20821767 219.93009967 -168.22183289 216.19834617 -169.375 212.484375 C-169.71772949 211.37485474 -169.71772949 211.37485474 -170.06738281 210.24291992 C-170.50869165 208.83328858 -170.96047853 207.42687617 -171.42480469 206.0246582 C-172.52216939 202.51507227 -173.08732073 199.53089323 -172.93457031 195.84545898 C-172.8796817 190.83012408 -173.81752485 186.29124092 -175 181.4375 C-175.19078125 180.61958984 -175.3815625 179.80167969 -175.578125 178.95898438 C-176.04325127 176.97056956 -176.52035427 174.98496244 -177 173 C-183.45941732 172.89848443 -189.91862852 172.82848624 -196.37866211 172.78027344 C-198.57568042 172.76017233 -200.77264532 172.73288694 -202.96948242 172.69824219 C-206.12952866 172.64965907 -209.28886687 172.62701595 -212.44921875 172.609375 C-213.42960617 172.58872986 -214.40999359 172.56808472 -215.42008972 172.54681396 C-222.60770619 172.53230697 -222.60770619 172.53230697 -228 177 Z M-153 173 C-148.18678958 198.30817094 -141.97191557 223.20837111 -135.6845932 248.18178177 C-134.29782394 253.69096186 -132.91289439 259.20060449 -131.52837372 264.71035004 C-131.17660566 266.10986933 -130.82468246 267.50934964 -130.47260284 268.90879059 C-125.53674592 288.52792202 -120.76361302 308.16995598 -116.47460938 327.94262695 C-116.30887924 328.70276093 -116.14314911 329.4628949 -115.97239685 330.24606323 C-115.53921081 332.23985055 -115.11222492 334.23498224 -114.68579102 336.23022461 C-114.27962911 338.89251557 -114.27962911 338.89251557 -113 340 C-111.58429877 340.08651611 -110.164405 340.10704904 -108.74609375 340.09765625 C-107.59258423 340.09390991 -107.59258423 340.09390991 -106.41577148 340.09008789 C-105.43294189 340.08098389 -104.4501123 340.07187988 -103.4375 340.0625 C-101.75398991 340.05101141 -100.07047733 340.0398852 -98.38696289 340.02905273 C-97.55894669 340.02356918 -96.73093048 340.01808563 -95.87782288 340.01243591 C-95.25814133 340.00833206 -94.63845978 340.00422821 -94 340 C-94.13204834 338.77772705 -94.26409668 337.5554541 -94.40014648 336.29614258 C-95.874442 322.10382796 -96.568311 307.94361439 -97.0625 293.6875 C-97.17884205 290.41565182 -97.29702685 287.14390092 -97.41929626 283.87226868 C-97.49420487 281.86116067 -97.56569816 279.84992128 -97.6330719 277.83854675 C-97.82923416 272.49624223 -98.29360141 267.29781289 -99 262 C-99.11990564 260.2072871 -99.21661963 258.41274307 -99.28125 256.6171875 C-99.33732422 255.20759766 -99.33732422 255.20759766 -99.39453125 253.76953125 C-99.46512804 251.83204159 -99.53543826 249.89454146 -99.60546875 247.95703125 C-99.66154297 246.55130859 -99.66154297 246.55130859 -99.71875 245.1171875 C-99.74904297 244.27784668 -99.77933594 243.43850586 -99.81054688 242.57373047 C-99.96505355 239.92529786 -99.96505355 239.92529786 -100.5 237.04101562 C-100.98863272 234.06913615 -101.18682305 231.23466366 -101.28125 228.2265625 C-101.33732422 226.6178125 -101.33732422 226.6178125 -101.39453125 224.9765625 C-101.44673828 223.31753906 -101.44673828 223.31753906 -101.5 221.625 C-101.7066015 213.24395205 -101.7066015 213.24395205 -102.5 204.90625 C-103.26343758 198.9418939 -103.38841402 192.96221201 -103.60546875 186.95703125 C-103.66154297 185.55130859 -103.66154297 185.55130859 -103.71875 184.1171875 C-103.74904297 183.27784668 -103.77933594 182.43850586 -103.81054688 181.57373047 C-104.02236031 178.69623409 -104.52566262 175.84602431 -105 173 C-120.84 173 -136.68 173 -153 173 Z M-83 173 C-82.70230713 177.30869141 -82.40461426 181.61738281 -82.09790039 186.05664062 C-81.11155619 200.33371496 -80.12578226 214.61082863 -79.14029789 228.88796234 C-78.54311382 237.53942277 -77.9457385 246.1908699 -77.34790039 254.84228516 C-76.82634796 262.38976496 -76.30516714 269.93727031 -75.78441805 277.48480558 C-75.50910802 281.47485893 -75.23362178 285.46489992 -74.95768929 289.45491028 C-74.69704541 293.22393149 -74.43690498 296.99298714 -74.17712212 300.76206779 C-74.03810633 302.77719861 -73.89858245 304.79229436 -73.7590332 306.80738831 C-73.03956756 317.25698808 -73.03956756 317.25698808 -72.74889946 322.28517151 C-72.70682127 323.00069073 -72.66474309 323.71620996 -72.62138981 324.45341158 C-72.50500584 326.45074574 -72.39245215 328.44830203 -72.28014278 330.44586945 C-72.02765819 333.64910462 -71.52824196 336.83054824 -71 340 C-63.74 340 -56.48 340 -49 340 C-48.19457419 335.97287095 -47.73676119 332.32366325 -47.46214294 328.24858093 C-47.41636944 327.58277333 -47.37059594 326.91696572 -47.32343537 326.23098212 C-47.1714038 324.00794787 -47.02406286 321.78462814 -46.87670898 319.5612793 C-46.76847097 317.9644838 -46.65994316 316.36770792 -46.55114746 314.77095032 C-46.25694911 310.44100099 -45.9668049 306.11078841 -45.67738605 301.78051734 C-45.37411385 297.25332485 -45.0671163 292.72638503 -44.76051331 288.19941711 C-44.18063053 279.62909586 -43.60409997 271.05855252 -43.02877241 262.4879244 C-42.37355733 252.7296566 -41.71460714 242.97164216 -41.05534256 233.21364725 C-39.69940442 213.14271 -38.34865209 193.07142823 -37 173 C-52.18 173 -67.36 173 -83 173 Z M-15 173 C-16.54328 190.36576588 -16.54328 190.36576588 -17.85375977 207.74536133 C-17.92072052 208.72132767 -17.98768127 209.69729401 -18.05667114 210.70283508 C-18.27051026 213.82908491 -18.4811709 216.95553718 -18.69140625 220.08203125 C-18.84301008 222.31858377 -18.99469968 224.55513047 -19.14646912 226.79167175 C-19.46140745 231.44117166 -19.7746144 236.09078428 -20.08666992 240.74047852 C-20.48146434 246.61944261 -20.88171717 252.49802072 -21.28343296 258.37651539 C-21.59752459 262.98478179 -21.9080854 267.59328155 -22.21772575 272.20184898 C-22.36362504 274.36586187 -22.51067191 276.52979779 -22.65902901 278.69364357 C-24.05513244 299.09740113 -25.23789132 319.54134667 -25 340 C-19.06 340 -13.12 340 -7 340 C-4.28361301 332.48353786 -2.4605799 324.8293344 -0.67086792 317.05502319 C3.21145619 300.21671479 7.35161107 283.44623401 11.5625 266.6875 C12.68016646 262.233193 13.7972117 257.77873034 14.9140625 253.32421875 C15.18209183 252.25527878 15.45012115 251.18633881 15.72627258 250.08500671 C25.69523382 211.81562332 25.69523382 211.81562332 33 173 C17.16 173 1.32 173 -15 173 Z " fill="#FBFBFB" transform="translate(311,79)"/>
<path d="M0 0 C4.23524695 3.43153263 8.1449166 7.15054445 12 11 C13.09248047 12.07507813 13.09248047 12.07507813 14.20703125 13.171875 C24.51028104 23.98317458 33.49895586 39.67594698 35.76171875 54.51171875 C36.45921638 58.96468047 37.20267939 62.83613256 39 67 C42.35556469 69.43840641 45.38936245 70.56973952 49.33203125 71.828125 C68.29424309 77.88633965 86.97264362 97.54711099 96 115 C101.47136899 126.43319349 105.20214326 138.31682906 106 151 C107.134375 151.20625 108.26875 151.4125 109.4375 151.625 C117.75624973 153.75990037 123.26371833 158.50875362 127.80859375 165.65625 C131.60832754 173.13113615 132.72924453 181.03837611 130.3671875 189.18164062 C128.58137562 194.29201005 126.43163406 199.24458236 124.24121094 204.19238281 C122.93049858 207.15721211 121.65430259 210.13534119 120.3828125 213.1171875 C113.71274567 228.68395003 113.71274567 228.68395003 111.046875 233.8125 C108.41383416 238.99229533 106.37572494 244.41639336 104.2571106 249.82156372 C95.6492979 271.74652208 86.29285114 293.34455375 76.58764648 314.80395508 C74.22909681 320.02035643 71.88097814 325.23604767 69.6484375 330.5078125 C64.11810396 343.53027082 58.03479803 354.42306426 44.43275452 360.13562012 C36.10553723 363.04829966 27.53643657 362.55893154 18.82592773 362.51757812 C16.89966301 362.52300615 14.97340245 362.53013261 13.04714966 362.53881836 C7.84264554 362.55697245 2.63846046 362.55001728 -2.56604886 362.53730202 C-8.0266205 362.52713468 -13.48716587 362.5365779 -18.94773865 362.54284668 C-28.11454138 362.55011161 -37.28121495 362.54056504 -46.44799805 362.52148438 C-57.03009942 362.49971142 -67.61189254 362.50677482 -78.19398648 362.52879 C-87.29834992 362.54696913 -96.40262083 362.54949022 -105.50699657 362.53903532 C-110.93648926 362.53281506 -116.36583725 362.53192447 -121.79532051 362.54518127 C-126.90004844 362.55677597 -132.00438062 362.54864798 -137.10906601 362.52560425 C-138.97704729 362.52033675 -140.84506215 362.52179719 -142.71302986 362.53065491 C-154.66896298 362.58210174 -165.0382398 362.46043992 -174.25 353.75 C-175.01828125 353.04359375 -175.7865625 352.3371875 -176.578125 351.609375 C-183.95002714 343.66674495 -187.97754844 334.92626486 -192.1875 325.0625 C-192.85389284 323.5219439 -193.521305 321.98182835 -194.18969727 320.44213867 C-195.52219539 317.37022707 -196.84973782 314.29624726 -198.17382812 311.22070312 C-199.70943801 307.66122387 -201.27452923 304.11601304 -202.859375 300.578125 C-212.20675027 279.70208718 -220.87377935 258.50778853 -229.28515625 237.23828125 C-230.72329388 233.62957446 -232.30800748 230.12354703 -234 226.625 C-237.66524946 218.92397614 -241.0191132 211.08911073 -244.375 203.25 C-244.78105469 202.30317352 -244.78105469 202.30317352 -245.1953125 201.33721924 C-253.61883332 181.68084651 -253.61883332 181.68084651 -249.71875 170.2421875 C-246.66543763 163.31502495 -243.04873026 157.3428259 -236 154 C-232.7073406 152.77997313 -229.41839005 151.79855833 -226 151 C-225.97421875 150.45214844 -225.9484375 149.90429688 -225.921875 149.33984375 C-224.04953501 123.169637 -210.09767652 102.16663948 -191 85 C-187.79999863 82.39653068 -184.52225326 80.14205998 -181 78 C-180.03320312 77.39671875 -179.06640625 76.7934375 -178.0703125 76.171875 C-173.19958298 73.22217112 -169.03846251 70.96889164 -163.5 69.625 C-160.96390011 68.84008874 -160.96390011 68.84008874 -159 67 C-157.47817905 62.89750074 -156.68097282 58.87511086 -155.90234375 54.58203125 C-152.84311779 37.8351345 -142.98722748 21.83280265 -131 10 C-130.10667969 9.09636719 -129.21335937 8.19273438 -128.29296875 7.26171875 C-93.7392706 -26.67526372 -38.1967089 -28.99241019 0 0 Z M-82 -15 C-82.84820312 -14.82855469 -83.69640625 -14.65710938 -84.5703125 -14.48046875 C-97.84325678 -11.40986224 -110.57535544 -4.66318388 -121 4 C-121.91136719 4.74894531 -122.82273437 5.49789062 -123.76171875 6.26953125 C-139.0762808 19.49088956 -153.41711614 40.43854531 -155.2890625 61.20703125 C-155.39347656 62.65142578 -155.39347656 62.65142578 -155.5 64.125 C-155.91796875 66.77734375 -155.91796875 66.77734375 -157 69 C-160.02897508 70.78584289 -162.99212152 71.74261565 -166.3515625 72.7734375 C-187.59801614 79.91624954 -204.43862286 99.20003361 -214.8203125 118.359375 C-220.16848598 129.37822488 -223.49955928 140.7392023 -224 153 C-224.8353125 153.11214844 -224.8353125 153.11214844 -225.6875 153.2265625 C-233.29526146 154.53735924 -237.99176366 157.91045998 -243.3125 163.375 C-248.14893075 170.89833672 -249.350568 178.18529287 -248 187 C-246.02478327 193.90998292 -242.90162786 200.44354185 -240 207 C-239.12551613 209.01862798 -238.25320531 211.03819842 -237.3828125 213.05859375 C-235.86654251 216.57222539 -234.34747295 220.08454622 -232.81762695 223.59228516 C-227.63553885 235.47914109 -222.55229758 247.40742378 -217.47729492 259.34033203 C-215.99738176 262.81865379 -214.51557204 266.29616168 -213.03320312 269.7734375 C-208.51170494 280.38239456 -203.9974763 290.99410426 -199.52279663 301.62290955 C-197.62118627 306.13568193 -195.71109082 310.64483384 -193.79956055 315.15341187 C-192.90004505 317.28097401 -192.00445729 319.41020156 -191.11303711 321.54116821 C-189.87576155 324.49794813 -188.62495614 327.44866092 -187.37109375 330.3984375 C-187.01575058 331.25748184 -186.66040741 332.11652618 -186.29429626 333.00160217 C-181.65534983 343.81763407 -174.1228066 353.40579727 -163 358 C-158.26687224 359.86841338 -154.02092119 360.28878504 -148.98750305 360.26742554 C-148.19792857 360.27195665 -147.40835409 360.27648776 -146.5948531 360.28115618 C-143.95811348 360.2937818 -141.3215809 360.29218099 -138.68481445 360.29052734 C-136.7904687 360.29651384 -134.89612539 360.30331967 -133.00178528 360.31088257 C-127.86105701 360.32853991 -122.72039534 360.33323791 -117.57963967 360.33451414 C-114.36500308 360.33593674 -111.15038336 360.34020846 -107.93575096 360.34550858 C-96.71244611 360.36400976 -85.48918874 360.3721793 -74.26586914 360.37060547 C-63.81853566 360.36940487 -53.37140904 360.39049104 -42.92412788 360.4220928 C-33.94385698 360.448285 -24.96365351 360.45897149 -15.98334473 360.45769465 C-10.6247052 360.45718577 -5.26624944 360.46282752 0.09235191 360.48405075 C5.13624823 360.50348204 10.17978646 360.50352415 15.22369576 360.48901749 C17.06868897 360.48693418 18.91370489 360.4916016 20.75865936 360.5037384 C32.66645054 360.57696053 43.59498497 360.26313828 53.3125 352.375 C54.07175781 351.78460938 54.83101563 351.19421875 55.61328125 350.5859375 C61.60093042 344.09850092 65.18578669 335.81934862 68.58984375 327.765625 C69.00700653 326.79492569 69.42416931 325.82422638 69.85397339 324.82411194 C71.22210898 321.63567102 72.57987984 318.44293081 73.9375 315.25 C74.9059069 312.98697192 75.87491293 310.72420014 76.84448242 308.46166992 C79.39202772 302.51135819 81.93036777 296.55716669 84.46594238 290.60174561 C86.46910662 285.89860544 88.47641564 281.19723946 90.48361206 276.49581909 C95.30728099 265.19628319 100.11961462 253.89196412 104.92453003 242.58444214 C107.58039326 236.33532794 110.24091004 230.08823252 112.90718079 223.84355164 C114.50536447 220.10026921 116.10183647 216.35625811 117.6980896 212.6121521 C118.43169541 210.89259711 119.16607057 209.17337011 119.90127563 207.45449829 C120.9011781 205.11640937 121.89819192 202.77710904 122.89453125 200.4375 C123.18295898 199.76514816 123.47138672 199.09279633 123.76855469 198.40007019 C127.77287749 188.9740327 130.28745313 179.43688249 127.16015625 169.26953125 C123.79108642 162.67885928 117.90303339 156.82454394 111 154 C109.00889599 153.61709538 107.00899487 153.27395385 105 153 C104.76925781 151.77925781 104.53851563 150.55851563 104.30078125 149.30078125 C99.14141288 122.89600549 87.39475304 99.23845201 64.9375 83.1875 C63.30198011 82.10919193 61.65618622 81.04628907 60 80 C59.18789063 79.46632813 58.37578125 78.93265625 57.5390625 78.3828125 C51.17932915 74.35030019 43.70561213 70 36 70 C35.9175 68.824375 35.835 67.64875 35.75 66.4375 C33.67358964 48.69111277 26.41148761 31.72747219 15 18 C14.23945313 17.07703125 13.47890625 16.1540625 12.6953125 15.203125 C-3.04796489 -3.00475492 -25.8792795 -15.09151027 -50 -17 C-60.76066293 -17.49837902 -71.46990165 -17.45285674 -82 -15 Z " fill="#0E0E0E" transform="translate(311,79)"/>
<path d="M0 0 C14.89721826 11.66664651 26.74325396 28.43069332 29.74951172 47.37011719 C29.74951172 48.69011719 29.74951172 50.01011719 29.74951172 51.37011719 C28.87810547 51.51707031 28.00669922 51.66402344 27.10888672 51.81542969 C12.82920478 54.5044607 -0.32643467 60.22081738 -9.06298828 72.30761719 C-10.15038913 73.97917989 -11.21466718 75.66611098 -12.25048828 77.37011719 C-12.68619141 78.07523437 -13.12189453 78.78035156 -13.57080078 79.50683594 C-16.25839357 84.28999933 -16.97978059 87.90042484 -16.25048828 93.37011719 C-14.79050841 95.99728296 -14.79050841 95.99728296 -12.25048828 97.37011719 C-8.56912657 97.99673195 -6.8265561 97.69164341 -3.56298828 95.87011719 C-1.11017042 93.21842221 -0.42952066 91.01562191 0.70654297 87.65136719 C4.97367165 78.31802205 13.45956652 72.8862836 22.74951172 69.37011719 C36.82207563 65.93254432 48.88536758 70.94084925 61.12451172 77.68261719 C66.96164709 81.28442196 71.90464955 85.53323667 76.74951172 90.37011719 C77.90773438 91.5109375 77.90773438 91.5109375 79.08935547 92.67480469 C90.68092259 104.76173793 98.74951172 120.49786385 98.74951172 137.37011719 C2.38951172 137.37011719 -93.97048828 137.37011719 -193.25048828 137.37011719 C-193.25048828 120.88056046 -185.30487739 105.39123994 -174.25048828 93.37011719 C-173.55181641 92.59152344 -172.85314453 91.81292969 -172.13330078 91.01074219 C-166.7886008 85.34269737 -161.01077301 81.20703555 -154.25048828 77.37011719 C-153.43708984 76.90734375 -152.62369141 76.44457031 -151.78564453 75.96777344 C-146.10080037 72.9364708 -140.36050059 71.08803607 -134.13330078 69.45996094 C-130.3091033 68.01422774 -128.078857 66.02685462 -126.25048828 62.37011719 C-126.14424336 60.14192499 -126.0657271 57.91238677 -126.00048828 55.68261719 C-125.01317955 35.92925335 -114.46479682 17.61257855 -100.32470703 4.16699219 C-71.58084693 -20.73352692 -30.89662688 -22.61318679 0 0 Z M-104.25048828 11.37011719 C-116.67170582 26.00891325 -122.95848177 42.91008478 -124.33251953 61.98730469 C-125.49217017 66.26074065 -127.5361615 68.20537983 -131.25048828 70.37011719 C-134.73095703 71.74121094 -134.73095703 71.74121094 -138.43798828 72.80761719 C-159.49761298 79.35686676 -174.82916839 94.2039506 -185.25048828 113.37011719 C-188.64129086 120.67788136 -189.41861335 126.05136792 -190.25048828 134.37011719 C-95.54048828 134.37011719 -0.83048828 134.37011719 96.74951172 134.37011719 C90.66687143 110.03955604 80.32690809 92.27640156 58.57763672 78.97167969 C47.29403657 72.58179562 35.88159534 68.22487856 22.87451172 71.37011719 C13.23178857 74.54479835 6.54030291 81.65269651 1.74951172 90.37011719 C0.72227351 92.47884914 -0.27970726 94.58184764 -1.19580078 96.74121094 C-2.57730048 98.87486047 -3.90198841 99.4644575 -6.25048828 100.37011719 C-10.88248275 100.86288256 -13.56015603 100.24037561 -17.25048828 97.37011719 C-19.54893367 93.65181304 -19.45484792 91.0771536 -18.84033203 86.85839844 C-15.81774643 74.10749096 -4.856148 62.73221755 6.05029297 55.93652344 C12.32824726 52.56224816 18.80323122 50.83814554 25.74951172 49.37011719 C27.21158855 44.74463776 26.1240935 41.35924761 24.43701172 36.99511719 C24.16920898 36.29757324 23.90140625 35.6000293 23.62548828 34.88134766 C15.28942398 14.34650335 0.00369419 0.58189679 -20.03955078 -8.34472656 C-49.79840708 -20.25550968 -82.4715388 -11.74643707 -104.25048828 11.37011719 Z " fill="#020202" transform="translate(298.25048828125,94.6298828125)"/>
<path d="M0 0 C1.02090729 0.00007553 2.04181458 0.00015106 3.09365845 0.00022888 C4.75151871 0.00797081 4.75151871 0.00797081 6.44287109 0.01586914 C7.57203949 0.01728409 8.70120789 0.01869904 9.86459351 0.02015686 C13.48185848 0.02576796 17.09906223 0.03832237 20.71630859 0.05102539 C23.16422437 0.05603896 25.61214111 0.06060211 28.06005859 0.06469727 C34.07049625 0.07574099 40.08089805 0.09248996 46.09130859 0.11352539 C48.91546966 11.70352774 51.73527193 23.29458361 54.55041504 34.88677979 C55.02041144 36.82165664 55.49087695 38.75641953 55.96142578 40.69116211 C58.42799264 50.84277746 60.84412529 61.00462382 63.17724609 71.18774414 C63.36209564 71.99431458 63.54694519 72.80088501 63.73739624 73.63189697 C63.92524689 74.45164001 64.11309753 75.27138306 64.30664062 76.1159668 C64.69318134 77.8026565 65.07973744 79.48934267 65.46630859 81.17602539 C65.65819763 82.01365417 65.85008667 82.85128296 66.04779053 83.71429443 C68.64751815 95.04683888 71.35721281 106.34372223 74.21630859 117.61352539 C76.95887039 128.43895987 79.56506689 139.28417057 82.02880859 150.17602539 C82.25349823 151.1636084 82.25349823 151.1636084 82.48272705 152.17114258 C83.91335308 158.47345289 85.23271581 164.70407733 86.09130859 171.11352539 C82.90398605 171.2014982 79.71698072 171.2542388 76.52880859 171.30102539 C75.63355469 171.32616211 74.73830078 171.35129883 73.81591797 171.37719727 C66.79426406 171.4543583 62.04391355 170.71534014 56.6027832 165.9206543 C53.87241119 162.86885908 52.41172495 160.13256534 50.74755859 156.39868164 C50.30688049 155.41920311 50.30688049 155.41920311 49.8572998 154.41993713 C48.92063307 152.32392061 48.0034315 150.22032839 47.09130859 148.11352539 C46.79675781 147.436828 46.50220703 146.76013062 46.19873047 146.06292725 C44.31050793 141.71236395 42.45650497 137.34781666 40.61428833 132.9776001 C39.54791244 130.44808687 38.47810478 127.92004769 37.4074707 125.39233398 C36.23378229 122.62129342 35.06027093 119.85017953 33.88768005 117.07867432 C29.31703802 106.27654434 24.72185377 95.48488709 20.12503052 84.69387817 C18.65659642 81.24507295 17.19006302 77.79546457 15.72387695 74.34570312 C11.06580855 63.39274505 6.38066904 52.45311722 1.62255859 41.54321289 C0.36456327 38.64838912 -0.89275818 35.75327351 -2.14993286 32.85809326 C-3.31803194 30.17813146 -4.49778824 27.50351122 -5.67797852 24.82885742 C-6.37916727 23.21566823 -7.07980374 21.60223883 -7.77978516 19.98852539 C-8.10043945 19.27236053 -8.42109375 18.55619568 -8.75146484 17.81832886 C-10.49232781 13.76549678 -11.42281016 10.5250737 -10.90869141 6.11352539 C-7.64150128 1.2127402 -5.75518723 -0.01417534 0 0 Z M-7.90869141 6.11352539 C-8.93945477 11.43763401 -6.66866459 15.57643472 -4.42041016 20.26977539 C-3.86520439 21.46775002 -3.86520439 21.46775002 -3.29878235 22.68992615 C-2.49497919 24.42421154 -1.68662807 26.15639468 -0.87426758 27.88668823 C1.32795146 32.58522877 3.48734707 37.30321568 5.64208984 42.02368164 C6.09182159 43.00881241 6.54155334 43.99394318 7.00491333 45.00892639 C11.95514675 55.91735756 16.54954932 66.96754279 21.09130859 78.05102539 C21.69338135 79.51878922 21.69338135 79.51878922 22.30761719 81.01620483 C24.91432842 87.37705798 27.5063515 93.74380519 30.09130859 100.11352539 C30.64807452 101.48430883 31.20487472 102.85507836 31.76171875 104.22583008 C32.711452 106.56445777 33.66100989 108.90315668 34.61035156 111.24194336 C36.76110542 116.53641898 38.92084639 121.82709761 41.09130859 127.11352539 C41.36759094 127.78722168 41.64387329 128.46091797 41.92852783 129.1550293 C43.78288342 133.67244873 45.65116991 138.1837865 47.53427124 142.68930054 C48.1473604 144.16060612 48.75686072 145.63341321 49.36245728 147.1078186 C50.2072701 149.16228403 51.06558822 151.21060937 51.92724609 153.25805664 C52.41757324 154.43730713 52.90790039 155.61655762 53.41308594 156.83154297 C55.90637365 161.707491 58.52390556 165.22452272 63.37646484 167.97680664 C67.62326897 169.27630191 71.1323407 169.45789844 75.52880859 169.30102539 C76.26035156 169.28749023 76.99189453 169.27395508 77.74560547 169.26000977 C79.52783281 169.22506413 81.30967432 169.17127344 83.09130859 169.11352539 C81.81624791 161.71803935 80.30336228 154.4179858 78.55224609 147.12133789 C78.31018936 146.10435318 78.06813263 145.08736847 77.81874084 144.03956604 C77.03881587 140.77152465 76.25335961 137.5048575 75.46630859 134.23852539 C75.1990799 133.12724274 74.9318512 132.01596008 74.65652466 130.8710022 C71.42954777 117.47478856 68.15845829 104.09450754 64.52880859 90.80102539 C64.21927246 89.65456543 63.90973633 88.50810547 63.59082031 87.3269043 C63.30094238 86.29098145 63.01106445 85.25505859 62.71240234 84.18774414 C62.4693335 83.31722412 62.22626465 82.4467041 61.97583008 81.54980469 C60.98819336 78.82951023 59.60823622 76.5707874 58.09130859 74.11352539 C57.61474609 72.01586914 57.61474609 72.01586914 57.46630859 70.05102539 C57.18806716 67.12949035 56.82939758 64.88873998 56.09130859 62.11352539 C55.82833984 61.0268457 55.56537109 59.94016602 55.29443359 58.82055664 C54.97753522 57.5221816 54.65977598 56.22401647 54.34130859 54.92602539 C54.17083008 54.22985107 54.00035156 53.53367676 53.82470703 52.81640625 C52.88309092 49.04362506 51.8694757 45.31187156 50.71630859 41.59790039 C50.3735791 40.48838013 50.3735791 40.48838013 50.02392578 39.35644531 C49.58261694 37.94681397 49.13083007 36.54040156 48.66650391 35.13818359 C47.5691392 31.62859766 47.00398786 28.64441862 47.15673828 24.95898438 C47.2116269 19.94364947 46.27378375 15.40476631 45.09130859 10.55102539 C44.90052734 9.73311523 44.70974609 8.91520508 44.51318359 8.07250977 C44.04805732 6.08409495 43.57095432 4.09848783 43.09130859 2.11352539 C36.63189128 2.01200982 30.17268008 1.94201163 23.71264648 1.89379883 C21.51562818 1.87369772 19.31866327 1.84641233 17.12182617 1.81176758 C13.96177993 1.76318446 10.80244173 1.74054135 7.64208984 1.72290039 C6.66170242 1.70225525 5.681315 1.68161011 4.67121887 1.66033936 C-2.5163976 1.64583236 -2.5163976 1.64583236 -7.90869141 6.11352539 Z " fill="#070707" transform="translate(90.90869140625,249.886474609375)"/>
<path d="M0 0 C16.5 0 33 0 50 0 C50 7.62971364 49.91520231 15.09328798 49.42089844 22.68237305 C49.35904861 23.67830978 49.29719879 24.67424652 49.23347473 25.70036316 C49.02927577 28.97106915 48.81954172 32.2413912 48.609375 35.51171875 C48.46181331 37.84339642 48.31445852 40.17508718 48.16729736 42.50679016 C47.85704293 47.40825473 47.54399027 52.30953068 47.22900391 57.21069336 C46.83584964 63.33204049 46.44994518 69.45381765 46.06615448 75.57575798 C44.06562171 107.4163686 41.71413815 139.21230649 39 171 C29.76 171 20.52 171 11 171 C9.43631022 154.89261152 8.31188552 138.79502611 7.36782837 122.64056396 C6.9502135 115.50190233 6.51832224 108.36410475 6.08203125 101.2265625 C6.0379759 100.50552464 5.99392056 99.78448677 5.9485302 99.04159927 C4.82349504 80.69959045 3.4634631 62.37598111 2.06542969 44.05291748 C1.77183984 40.20285211 1.48043828 36.35262383 1.19000244 32.50231934 C1.07024501 30.92512208 0.94899341 29.34803689 0.82562256 27.77111816 C0.09900652 18.46057108 0 9.38103023 0 0 Z M2 2 C2.29769287 6.30869141 2.59538574 10.61738281 2.90209961 15.05664062 C3.88844381 29.33371496 4.87421774 43.61082863 5.85970211 57.88796234 C6.45688618 66.53942277 7.0542615 75.1908699 7.65209961 83.84228516 C8.17365204 91.38976496 8.69483286 98.93727031 9.21558195 106.48480558 C9.49089198 110.47485893 9.76637822 114.46489992 10.04231071 118.45491028 C10.30295459 122.22393149 10.56309502 125.99298714 10.82287788 129.76206779 C10.96189367 131.77719861 11.10141755 133.79229436 11.2409668 135.80738831 C11.96043244 146.25698808 11.96043244 146.25698808 12.25110054 151.28517151 C12.29317873 152.00069073 12.33525691 152.71620996 12.37861019 153.45341158 C12.49499416 155.45074574 12.60754785 157.44830203 12.71985722 159.44586945 C12.97234181 162.64910462 13.47175804 165.83054824 14 169 C21.26 169 28.52 169 36 169 C36.80542581 164.97287095 37.26323881 161.32366325 37.53785706 157.24858093 C37.58363056 156.58277333 37.62940406 155.91696572 37.67656463 155.23098212 C37.8285962 153.00794787 37.97593714 150.78462814 38.12329102 148.5612793 C38.23152903 146.9644838 38.34005684 145.36770792 38.44885254 143.77095032 C38.74305089 139.44100099 39.0331951 135.11078841 39.32261395 130.78051734 C39.62588615 126.25332485 39.9328837 121.72638503 40.23948669 117.19941711 C40.81936947 108.62909586 41.39590003 100.05855252 41.97122759 91.4879244 C42.62644267 81.7296566 43.28539286 71.97164216 43.94465744 62.21364725 C45.30059558 42.14271 46.65134791 22.07142823 48 2 C32.82 2 17.64 2 2 2 Z " fill="#0B0B0B" transform="translate(226,250)"/>
<path d="M0 0 C14.89721826 11.66664651 26.74325396 28.43069332 29.74951172 47.37011719 C29.74951172 48.69011719 29.74951172 50.01011719 29.74951172 51.37011719 C28.87810547 51.51707031 28.00669922 51.66402344 27.10888672 51.81542969 C12.82920478 54.5044607 -0.32643467 60.22081738 -9.06298828 72.30761719 C-10.15038913 73.97917989 -11.21466718 75.66611098 -12.25048828 77.37011719 C-12.68619141 78.07523437 -13.12189453 78.78035156 -13.57080078 79.50683594 C-16.25839357 84.28999933 -16.97978059 87.90042484 -16.25048828 93.37011719 C-14.79050841 95.99728296 -14.79050841 95.99728296 -12.25048828 97.37011719 C-8.56912657 97.99673195 -6.8265561 97.69164341 -3.56298828 95.87011719 C-1.11017042 93.21842221 -0.42952066 91.01562191 0.70654297 87.65136719 C4.97367165 78.31802205 13.45956652 72.8862836 22.74951172 69.37011719 C31.42851765 67.18697218 39.53831771 67.96399227 47.74951172 71.37011719 C47.41951172 72.03011719 47.08951172 72.69011719 46.74951172 73.37011719 C45.69763672 73.15355469 45.69763672 73.15355469 44.62451172 72.93261719 C34.17508172 70.88816349 24.84585843 70.1534474 15.32373047 75.81152344 C8.37543461 80.84465875 4.24960427 87.04030393 0.68701172 94.74511719 C-1.0077296 98.24618774 -2.49992474 99.94133108 -6.25048828 101.37011719 C-10.23297825 101.96325399 -11.92689757 101.54435834 -15.50048828 99.62011719 C-18.16078517 97.44351064 -19.04517379 96.46623309 -20.25048828 93.37011719 C-20.86607202 85.25703923 -17.10377244 78.01413707 -12.23486328 71.79589844 C-1.12023319 59.10734346 9.14592092 51.87912349 25.74951172 48.37011719 C23.83078147 31.48960274 13.83307986 15.10348883 0.74951172 4.37011719 C-17.60236437 -9.10523837 -38.51579341 -14.9051617 -61.12548828 -12.06738281 C-80.13592643 -8.4632677 -98.67590456 3.61783864 -109.50048828 19.49511719 C-116.21452436 29.73671327 -121.50591039 41.68023344 -122.55908203 53.97167969 C-123.59505653 65.72040853 -123.59505653 65.72040853 -126.93798828 68.99511719 C-131.02944687 71.74553402 -135.82333778 73.03557842 -140.49291992 74.49121094 C-159.30943664 80.38135718 -173.21498372 94.22925495 -183.01220703 110.97167969 C-184.18453471 113.24237115 -185.05940423 115.45241364 -185.87548828 117.87011719 C-187.25048828 121.37011719 -187.25048828 121.37011719 -189.33642578 122.58886719 C-189.96806641 122.84667969 -190.59970703 123.10449219 -191.25048828 123.37011719 C-185.4273123 103.63602082 -172.08035627 87.48977199 -154.25048828 77.37011719 C-153.43708984 76.90734375 -152.62369141 76.44457031 -151.78564453 75.96777344 C-146.10080037 72.9364708 -140.36050059 71.08803607 -134.13330078 69.45996094 C-130.3091033 68.01422774 -128.078857 66.02685462 -126.25048828 62.37011719 C-126.14424336 60.14192499 -126.0657271 57.91238677 -126.00048828 55.68261719 C-125.01317955 35.92925335 -114.46479682 17.61257855 -100.32470703 4.16699219 C-71.58084693 -20.73352692 -30.89662688 -22.61318679 0 0 Z " fill="#0D0D0D" transform="translate(298.25048828125,94.6298828125)"/>
<path d="M0 0 C17.49 0 34.98 0 53 0 C54.19456594 3.58369782 54.36957344 7.01541386 54.60083008 10.75439453 C54.67930396 11.94629599 54.67930396 11.94629599 54.75936317 13.16227627 C54.93326508 15.81888702 55.10140719 18.47583031 55.26953125 21.1328125 C55.39152333 23.01539702 55.51384975 24.8979599 55.63648987 26.78050232 C55.96535316 31.84548922 56.2890914 36.91079144 56.61162567 41.97618484 C56.87885507 46.16515212 57.14870788 50.3539487 57.41854858 54.54274845 C58.22500129 67.06382288 59.02196021 79.58549055 59.81630707 92.10733795 C60.04721207 95.74346111 60.27905752 99.37952391 60.51096821 103.01558304 C61.09533433 112.17891066 61.67358778 121.34260333 62.24615097 130.50667572 C62.37424819 132.55050463 62.50345882 134.59426042 62.63296509 136.63800049 C62.87078868 140.4055946 63.10407733 144.17344105 63.3359375 147.94140625 C63.4386068 149.55093422 63.4386068 149.55093422 63.54335022 151.19297791 C63.60429367 152.19994217 63.66523712 153.20690643 63.72802734 154.24438477 C63.78098969 155.09718521 63.83395203 155.94998566 63.88851929 156.82862854 C64.05447359 161.54964926 64 166.27606335 64 171 C56.08 171 48.16 171 40 171 C36.69774001 158.0325888 33.52836724 145.06225338 30.625 132 C28.24422228 121.28974928 25.69940825 110.63433688 23 100 C20.36402113 89.61485757 17.88025072 79.21210652 15.5625 68.75 C12.63942422 55.56213016 9.42728851 42.45940963 6.10766602 29.36621094 C4.44768639 22.81778268 2.79822401 16.26750698 1.234375 9.6953125 C0.99428711 8.68742676 0.75419922 7.67954102 0.50683594 6.64111328 C0 4 0 4 0 0 Z M3 2 C7.81321042 27.30817094 14.02808443 52.20837111 20.3154068 77.18178177 C21.70217606 82.69096186 23.08710561 88.20060449 24.47162628 93.71035004 C24.82339434 95.10986933 25.17531754 96.50934964 25.52739716 97.90879059 C30.46325408 117.52792202 35.23638698 137.16995598 39.52539062 156.94262695 C39.69112076 157.70276093 39.85685089 158.4628949 40.02760315 159.24606323 C40.46078919 161.23985055 40.88777508 163.23498224 41.31420898 165.23022461 C41.72037089 167.89251557 41.72037089 167.89251557 43 169 C44.41570123 169.08651611 45.835595 169.10704904 47.25390625 169.09765625 C48.40741577 169.09390991 48.40741577 169.09390991 49.58422852 169.09008789 C50.56705811 169.08098389 51.5498877 169.07187988 52.5625 169.0625 C54.24601009 169.05101141 55.92952267 169.0398852 57.61303711 169.02905273 C58.44105331 169.02356918 59.26906952 169.01808563 60.12217712 169.01243591 C60.74185867 169.00833206 61.36154022 169.00422821 62 169 C61.86795166 167.77772705 61.73590332 166.5554541 61.59985352 165.29614258 C60.125558 151.10382796 59.431689 136.94361439 58.9375 122.6875 C58.82115795 119.41565182 58.70297315 116.14390092 58.58070374 112.87226868 C58.50579513 110.86116067 58.43430184 108.84992128 58.3669281 106.83854675 C58.17076584 101.49624223 57.70639859 96.29781289 57 91 C56.88009436 89.2072871 56.78338037 87.41274307 56.71875 85.6171875 C56.66267578 84.20759766 56.66267578 84.20759766 56.60546875 82.76953125 C56.53487196 80.83204159 56.46456174 78.89454146 56.39453125 76.95703125 C56.33845703 75.55130859 56.33845703 75.55130859 56.28125 74.1171875 C56.25095703 73.27784668 56.22066406 72.43850586 56.18945312 71.57373047 C56.03494645 68.92529786 56.03494645 68.92529786 55.5 66.04101562 C55.01136728 63.06913615 54.81317695 60.23466366 54.71875 57.2265625 C54.66267578 55.6178125 54.66267578 55.6178125 54.60546875 53.9765625 C54.55326172 52.31753906 54.55326172 52.31753906 54.5 50.625 C54.2933985 42.24395205 54.2933985 42.24395205 53.5 33.90625 C52.73656242 27.9418939 52.61158598 21.96221201 52.39453125 15.95703125 C52.33845703 14.55130859 52.33845703 14.55130859 52.28125 13.1171875 C52.25095703 12.27784668 52.22066406 11.43850586 52.18945312 10.57373047 C51.97763969 7.69623409 51.47433738 4.84602431 51 2 C35.16 2 19.32 2 3 2 Z " fill="#080808" transform="translate(155,250)"/>
<path d="M0 0 C0.96157516 -0.01606293 1.92315033 -0.03212585 2.91386414 -0.04867554 C7.33075384 -0.09303695 11.74749029 -0.13421618 16.16455078 -0.15722656 C18.49342862 -0.17376528 20.82225614 -0.20102742 23.15087891 -0.23925781 C26.50555816 -0.29407673 29.85904419 -0.31591196 33.21411133 -0.33056641 C34.25182175 -0.35323578 35.28953217 -0.37590515 36.35868835 -0.39926147 C44.44131841 -0.37569149 44.44131841 -0.37569149 48.12548828 2.60058594 C50.52125525 5.23421816 51.35366059 6.2097912 51.81005859 9.66162109 C51.33543433 14.79622493 49.32268273 19.0008202 47.26098633 23.69287109 C46.81300186 24.73618088 46.3650174 25.77949066 45.90345764 26.85441589 C44.41926771 30.30493689 42.92013327 33.7487573 41.42114258 37.19287109 C40.37768937 39.61205938 39.335389 42.0317452 38.29418945 44.4519043 C36.39770531 48.85877811 34.4978408 53.26416289 32.5936985 57.66773319 C27.66009729 69.07943129 22.79753719 80.52119039 17.93600464 91.96374512 C15.55212701 97.5717257 13.16236237 103.1771952 10.77270508 108.78271484 C7.83759337 115.66815889 4.90406305 122.55426559 1.97454834 129.4420929 C0.58765235 132.70115125 -0.80181005 135.95911006 -2.19213867 139.21670532 C-2.8113936 140.6690198 -3.42960687 142.12177901 -4.04663086 143.57504272 C-13.96832481 166.93852544 -13.96832481 166.93852544 -21.51635742 171.19287109 C-24.49033775 172.14695368 -27.16821627 172.31048738 -30.28198242 172.29052734 C-31.17143555 172.28730469 -32.06088867 172.28408203 -32.97729492 172.28076172 C-33.89768555 172.27238281 -34.81807617 172.26400391 -35.76635742 172.25537109 C-36.7022168 172.25085938 -37.63807617 172.24634766 -38.60229492 172.24169922 C-40.90704783 172.22994028 -43.21166969 172.21350535 -45.51635742 172.19287109 C-43.71360317 161.13597834 -41.10712452 150.3534498 -38.34179688 139.50244141 C-36.12699349 130.76254387 -34.09011922 121.99560653 -32.14135742 113.19287109 C-29.61498058 101.81052309 -26.8794995 90.49505671 -24.01635742 79.19287109 C-20.84290258 66.66172884 -17.86184666 54.10707958 -15.05297852 41.48925781 C-13.13804408 32.90178091 -11.1637828 24.33126981 -9.11090088 15.77584839 C-8.65040797 13.8556115 -8.19345436 11.93452695 -7.73657227 10.01342773 C-7.46022949 8.86865967 -7.18388672 7.7238916 -6.89916992 6.54443359 C-6.65569824 5.53203613 -6.41222656 4.51963867 -6.16137695 3.4765625 C-5.06585238 -0.40214185 -3.7919664 0.05736114 0 0 Z M-2.51635742 2.19287109 C-8.62500811 26.39084555 -14.61219992 50.61375469 -20.40405273 74.88961792 C-23.61023252 88.32462763 -26.88029569 101.73960269 -30.26635742 115.13037109 C-33.34237478 127.307664 -36.27037066 139.51353715 -39.07885742 151.75537109 C-39.25533813 152.52041962 -39.43181885 153.28546814 -39.61364746 154.07369995 C-40.10723956 156.21802838 -40.5959873 158.36339269 -41.08276367 160.50927734 C-41.36063721 161.73074463 -41.63851074 162.95221191 -41.92480469 164.21069336 C-42.61364323 167.17660147 -42.61364323 167.17660147 -42.51635742 170.19287109 C-39.99485532 170.27460045 -37.47605825 170.33370482 -34.95385742 170.38037109 C-34.24938477 170.40550781 -33.54491211 170.43064453 -32.8190918 170.45654297 C-27.73365137 170.5268486 -24.03751807 169.7571917 -19.51635742 167.19287109 C-14.95577088 162.7260411 -12.61354581 157.68014539 -10.07885742 151.88037109 C-9.65910645 150.93814697 -9.23935547 149.99592285 -8.80688477 149.02514648 C0.06314469 128.97900758 8.45792541 108.7230407 16.79467773 88.45092773 C21.66309909 76.66426573 26.73729378 64.96818325 31.81616211 53.27099609 C32.48661839 51.72674529 33.1570295 50.18247486 33.82739258 48.63818359 C34.149487 47.89618713 34.47158142 47.15419067 34.80343628 46.38970947 C37.61778105 39.89879915 40.38387459 33.38834838 43.10180664 26.85644531 C43.36703125 26.21980957 43.63225586 25.58317383 43.90551758 24.92724609 C44.15495117 24.3267041 44.40438477 23.72616211 44.66137695 23.10742188 C45.27676243 21.67456768 45.91778774 20.25267792 46.5715332 18.83691406 C46.93956055 18.03914551 47.30758789 17.24137695 47.68676758 16.41943359 C48.02869141 15.69320801 48.37061523 14.96698242 48.72290039 14.21875 C49.86349357 11.18131668 49.62618555 9.19204639 48.48364258 6.19287109 C45.06703056 2.89014615 41.75283051 2.06602528 37.10400391 2.0793457 C35.78297417 2.079459 35.78297417 2.079459 34.43525696 2.07957458 C33.01481331 2.08731651 33.01481331 2.08731651 31.56567383 2.09521484 C30.59329269 2.09662979 29.62091156 2.09804474 28.61906433 2.09950256 C25.51139254 2.10510293 22.40379262 2.11765547 19.29614258 2.13037109 C17.19002383 2.13538605 15.08390395 2.13994896 12.9777832 2.14404297 C7.81304194 2.15507247 2.64835445 2.17233734 -2.51635742 2.19287109 Z " fill="#090909" transform="translate(370.516357421875,248.80712890625)"/>
<path d="M0 0 C17.49 0 34.98 0 53 0 C50.75298503 14.60559728 50.75298503 14.60559728 49.30078125 20.1796875 C48.82318359 22.04270508 48.82318359 22.04270508 48.3359375 23.94335938 C48.16932617 24.58297607 48.00271484 25.22259277 47.83105469 25.8815918 C46.92014141 29.38328997 46.03158179 32.89062989 45.14453125 36.3984375 C44.96290436 37.11622375 44.78127747 37.83401001 44.59414673 38.57354736 C42.76435349 45.85356829 41.12206808 53.17089866 39.5 60.5 C37.11375869 71.25145324 34.56923376 81.94733119 31.875 92.625 C31.70339355 93.30549408 31.53178711 93.98598816 31.35498047 94.68710327 C30.84878929 96.69378546 30.34241088 98.70042027 29.8359375 100.70703125 C26.7231289 113.03975772 23.8126309 125.41481524 20.98828125 137.81640625 C20.80977631 138.59971817 20.63127136 139.38303009 20.44735718 140.19007874 C19.55013932 144.12899024 18.65554389 148.06846605 17.765625 152.0090332 C17.43363137 153.4721765 17.10160166 154.93531162 16.76953125 156.3984375 C16.62075027 157.06118179 16.4719693 157.72392609 16.31867981 158.40675354 C15.34990222 162.66469577 14.20326265 166.78858072 13 171 C5.08 171 -2.84 171 -11 171 C-10.40069674 155.06095481 -9.54663914 139.16895479 -8.44354248 123.25762939 C-7.99291272 116.75427388 -7.55233407 110.25023918 -7.11328125 103.74609375 C-7.06761017 103.07072067 -7.02193909 102.3953476 -6.97488403 101.69950867 C-6.24846734 90.93879325 -5.56962439 80.17564371 -4.91796875 69.41015625 C-4.87391844 68.6840597 -4.82986813 67.95796314 -4.78448296 67.20986366 C-4.35570623 60.13976068 -3.93005679 53.06948858 -3.5134058 45.99866009 C-3.32125665 42.75156573 -3.124991 39.50471843 -2.9296875 36.2578125 C-2.8652092 35.13999893 -2.8007309 34.02218536 -2.73429871 32.87049866 C-2.06809471 21.87835748 -0.99878275 10.9866103 0 0 Z M2 2 C0.45672 19.36576588 0.45672 19.36576588 -0.85375977 36.74536133 C-0.92072052 37.72132767 -0.98768127 38.69729401 -1.05667114 39.70283508 C-1.27051026 42.82908491 -1.4811709 45.95553718 -1.69140625 49.08203125 C-1.84301008 51.31858377 -1.99469968 53.55513047 -2.14646912 55.79167175 C-2.46140745 60.44117166 -2.7746144 65.09078428 -3.08666992 69.74047852 C-3.48146434 75.61944261 -3.88171717 81.49802072 -4.28343296 87.37651539 C-4.59752459 91.98478179 -4.9080854 96.59328155 -5.21772575 101.20184898 C-5.36362504 103.36586187 -5.51067191 105.52979779 -5.65902901 107.69364357 C-7.05513244 128.09740113 -8.23789132 148.54134667 -8 169 C-2.06 169 3.88 169 10 169 C12.71638699 161.48353786 14.5394201 153.8293344 16.32913208 146.05502319 C20.21145619 129.21671479 24.35161107 112.44623401 28.5625 95.6875 C29.68016646 91.233193 30.7972117 86.77873034 31.9140625 82.32421875 C32.18209183 81.25527878 32.45012115 80.18633881 32.72627258 79.08500671 C42.69523382 40.81562332 42.69523382 40.81562332 50 2 C34.16 2 18.32 2 2 2 Z " fill="#090909" transform="translate(294,250)"/>
<path d="M0 0 C17.49 0 34.98 0 53 0 C54.2842315 3.85269449 54.41189892 7.63595155 54.66430664 11.65893555 C54.72297409 12.54385178 54.78164154 13.42876801 54.84208679 14.34049988 C55.03539595 17.272329 55.22289622 20.20449752 55.41015625 23.13671875 C55.54297351 25.17594668 55.67606963 27.21515647 55.80943298 29.25434875 C56.08844519 33.53390902 56.3647003 37.81363564 56.63891602 42.09350586 C56.98972459 47.56678896 57.34633304 53.03967457 57.7049036 58.51245403 C57.98056721 62.72719061 58.25361959 66.94209316 58.52584648 71.15705299 C58.65633233 73.1740239 58.7875057 75.19095046 58.91938972 77.20783043 C59.10385771 80.03642583 59.28492716 82.8652192 59.46508789 85.6940918 C59.54688797 86.9342807 59.54688797 86.9342807 59.63034058 88.19952393 C59.94091441 93.1441821 60.04845569 98.04546664 60 103 C59.34 103 58.68 103 58 103 C56.10293118 94.2697998 55.63711765 85.65028771 55.34204102 76.74365234 C55.31037842 75.8305127 55.27871582 74.91737305 55.24609375 73.9765625 C55.22216553 73.16268066 55.1982373 72.34879883 55.17358398 71.51025391 C55.03537757 68.91606722 55.03537757 68.91606722 54.50219727 66.04980469 C54.01227611 63.07455183 53.8132861 60.23814076 53.71875 57.2265625 C53.66267578 55.6178125 53.66267578 55.6178125 53.60546875 53.9765625 C53.55326172 52.31753906 53.55326172 52.31753906 53.5 50.625 C53.30427499 44.44878844 53.1029557 38.37277255 52.24072266 32.24755859 C51.64582487 26.69316809 51.61066802 21.08021822 51.4375 15.5 C51.293125 11.045 51.14875 6.59 51 2 C35.16 2 19.32 2 3 2 C4.32 7.28 5.64 12.56 7 18 C8.41800792 23.68191418 9.8227813 29.36639347 11.2019043 35.05786133 C11.61317973 36.74489638 12.02929468 38.43075811 12.44995117 40.11547852 C13.06855869 42.59634 13.67062737 45.08072468 14.26953125 47.56640625 C14.55374687 48.68372887 14.55374687 48.68372887 14.84370422 49.82362366 C15.96974653 54.59162593 15.98357462 58.19189555 15 63 C14.67 63 14.34 63 14 63 C11.02313169 50.67748261 8.13198891 38.33534003 5.29199219 25.98062134 C4.93231497 24.41738232 4.57164696 22.85437092 4.20996094 21.29159546 C3.69436451 19.06224031 3.18264334 16.83202813 2.671875 14.6015625 C2.44090118 13.60720436 2.44090118 13.60720436 2.20526123 12.59275818 C1.24709349 8.38354939 0.61431743 4.30022202 0 0 Z " fill="#0B0B0B" transform="translate(155,250)"/>
<path d="M0 0 C3.73527902 1.24509301 3.93057641 2.24168985 5.75 5.625 C10.3032604 13.47544897 15.50725912 18.6505265 24 22 C24.8647526 22.34203901 25.7295052 22.68407803 26.62046242 23.03648186 C30.52947627 24.15095556 34.13706802 24.27198002 38.16244507 24.24050903 C38.96794788 24.24221788 39.77345069 24.24392673 40.60336268 24.24568737 C43.29344653 24.24897286 45.9832791 24.23799411 48.67333984 24.22705078 C50.60523472 24.22648646 52.53713003 24.22680363 54.46902466 24.22793579 C59.70820932 24.2285095 64.94730236 24.21675213 70.18646574 24.20278788 C75.66374465 24.19028365 81.14102567 24.18911026 86.61831665 24.18673706 C96.98793231 24.1805214 107.35750579 24.16410937 117.72710288 24.14403808 C129.53354111 24.1216818 141.33998136 24.11068633 153.1464355 24.10064721 C177.43098038 24.07974325 201.71548783 24.04456555 226 24 C225.67 24.99 225.34 25.98 225 27 C199.48713385 27.09350301 173.97429343 27.16400853 148.46129036 27.20724869 C136.61476025 27.22786082 124.76833671 27.25595575 112.921875 27.30175781 C102.5947083 27.34166673 92.26761879 27.36744262 81.94037712 27.37635398 C76.47378665 27.38156182 71.00741697 27.39377428 65.54089737 27.42292023 C60.39123673 27.45015325 55.24188699 27.45842901 50.09216118 27.45243073 C48.20642721 27.45352743 46.32068241 27.46143411 44.43501091 27.4768219 C30.37139752 27.58591709 20.83582507 26.49255891 10.265625 16.37109375 C5.50495254 11.38880378 1.70248882 6.80995527 0 0 Z " fill="#030303" transform="translate(124,414)"/>
<path d="M0 0 C0.33 0 0.66 0 1 0 C0.53983646 12.32753904 -0.07628758 24.63114027 -0.9375 36.9375 C-2.24047019 55.6101032 -3.10790927 74.30405599 -4 93 C1.94 92.67 7.88 92.34 14 92 C14.31751221 90.62223389 14.63502441 89.24446777 14.9621582 87.82495117 C16.14212571 82.71787298 17.33634263 77.61421626 18.53491211 72.51147461 C19.05183488 70.30177179 19.56487955 68.09115804 20.07397461 65.87963867 C20.80607692 62.70244296 21.55202696 59.5287757 22.30078125 56.35546875 C22.52590897 55.36475876 22.75103668 54.37404877 22.98298645 53.35331726 C23.20298813 52.43258926 23.42298981 51.51186127 23.6496582 50.56323242 C23.83841019 49.7527092 24.02716217 48.94218597 24.22163391 48.10710144 C25.08750115 45.76312716 26.12049192 44.61289682 28 43 C27.43466997 51.67129293 25.59322307 59.88863225 23.61645508 68.32348633 C23.06157261 70.69145765 22.51536968 73.06130075 21.97070312 75.43164062 C21.61768683 76.95844887 21.26418784 78.48514561 20.91015625 80.01171875 C20.74862564 80.70980148 20.58709503 81.40788422 20.42066956 82.12712097 C19.40158901 86.46844924 18.22753596 90.70362416 17 95 C9.08 95 1.16 95 -7 95 C-6.36733366 78.01027264 -5.42465922 61.06583264 -4.27050781 44.10400391 C-4.04261278 40.75180784 -3.81783225 37.39943653 -3.59492493 34.04690742 C-3.37759112 30.78375394 -3.157494 27.52078756 -2.9375 24.2578125 C-2.85830322 23.0722879 -2.77910645 21.88676331 -2.69750977 20.66531372 C-1.37892419 1.37892419 -1.37892419 1.37892419 0 0 Z " fill="#060606" transform="translate(290,326)"/>
<path d="M0 0 C0.96157516 -0.01606293 1.92315033 -0.03212585 2.91386414 -0.04867554 C7.33075384 -0.09303695 11.74749029 -0.13421618 16.16455078 -0.15722656 C18.49342862 -0.17376528 20.82225614 -0.20102742 23.15087891 -0.23925781 C26.50555816 -0.29407673 29.85904419 -0.31591196 33.21411133 -0.33056641 C34.25182175 -0.35323578 35.28953217 -0.37590515 36.35868835 -0.39926147 C44.44131841 -0.37569149 44.44131841 -0.37569149 48.12548828 2.60058594 C51.5497187 6.36479327 51.5924473 8.18785405 51.48364258 13.19287109 C51.25676758 12.63599609 51.02989258 12.07912109 50.79614258 11.50537109 C48.52763809 7.50848223 45.86464312 4.65320461 41.48364258 3.19287109 C40.02657341 3.07937261 38.56519299 3.01685635 37.10400391 2.98754883 C35.78297417 2.957631 35.78297417 2.957631 34.43525696 2.92710876 C33.48829453 2.91039627 32.54133209 2.89368378 31.56567383 2.87646484 C30.59329269 2.85568375 29.62091156 2.83490265 28.61906433 2.81349182 C25.51149593 2.74808361 22.40384273 2.6891518 19.29614258 2.63037109 C17.190014 2.58717758 15.08389401 2.54356302 12.9777832 2.49951172 C7.81315667 2.39241111 2.6484448 2.29111891 -2.51635742 2.19287109 C-2.62416031 2.82768402 -2.7319632 3.46249695 -2.84303284 4.11654663 C-4.18662308 11.78484638 -5.87352706 19.34541867 -7.66870117 26.91943359 C-7.96950089 28.1888681 -8.2703006 29.45830261 -8.58021545 30.76620483 C-9.2122185 33.42743423 -9.84734966 36.0878987 -10.48388672 38.74804688 C-11.29953529 42.1607706 -12.10000266 45.57687969 -12.89746761 48.99389076 C-13.66423497 52.26341664 -14.44897984 55.52857109 -15.23120117 58.79443359 C-15.51567612 60.02344391 -15.80015106 61.25245422 -16.09324646 62.51870728 C-16.36685501 63.64433075 -16.64046356 64.76995422 -16.92236328 65.9296875 C-17.15837753 66.9246524 -17.39439178 67.91961731 -17.63755798 68.94473267 C-17.9275618 69.68661835 -18.21756561 70.42850403 -18.51635742 71.19287109 C-20.00135742 71.68787109 -20.00135742 71.68787109 -21.51635742 72.19287109 C-20.05722366 63.67012878 -18.24809377 55.2477723 -16.32885742 46.81787109 C-16.17906433 46.15777039 -16.02927124 45.49766968 -15.87493896 44.81756592 C-13.67209099 35.11590836 -11.41958819 25.42602068 -9.10385132 15.75067139 C-8.64682709 13.84072931 -8.19253745 11.93013356 -7.73828125 10.01953125 C-7.46137451 8.87274902 -7.18446777 7.7259668 -6.89916992 6.54443359 C-6.65569824 5.53203613 -6.41222656 4.51963867 -6.16137695 3.4765625 C-5.06585238 -0.40214185 -3.7919664 0.05736114 0 0 Z " fill="#1F1F1F" transform="translate(370.516357421875,248.80712890625)"/>
<path d="M0 0 C-0.60373393 6.89413803 -1.92680323 13.33096661 -3.66015625 20.0234375 C-3.92586929 21.07151077 -4.19158234 22.11958405 -4.46534729 23.19941711 C-5.32599753 26.59258919 -6.19418254 29.98378274 -7.0625 33.375 C-8.25372378 38.05472594 -9.43950201 42.73580175 -10.62109375 47.41796875 C-11.05977783 49.15621666 -11.05977783 49.15621666 -11.50732422 50.92958069 C-13.27809389 57.99193933 -14.96212364 65.06681275 -16.53515625 72.17578125 C-16.71915482 73.00476929 -16.90315338 73.83375732 -17.09272766 74.68786621 C-17.93225265 78.48958658 -18.75296901 82.29434832 -19.55102539 86.10498047 C-19.8384285 87.42811986 -20.12608976 88.75120322 -20.4140625 90.07421875 C-20.6507666 91.20432373 -20.8874707 92.33442871 -21.13134766 93.4987793 C-21.41800293 94.32418213 -21.7046582 95.14958496 -22 96 C-23.485 96.495 -23.485 96.495 -25 97 C-24.37775701 89.96865423 -22.67064192 83.31754606 -20.90594482 76.49368286 C-17.86715704 64.7254104 -15.01845006 52.92555138 -12.375 41.0625 C-10.17836908 31.24230437 -7.98116532 21.42307868 -5.6875 11.625 C-5.32374268 10.02797241 -5.32374268 10.02797241 -4.95263672 8.39868164 C-4.72463379 7.43438232 -4.49663086 6.47008301 -4.26171875 5.4765625 C-4.06537842 4.63174316 -3.86903809 3.78692383 -3.66674805 2.91650391 C-2.94613789 0.84517847 -2.34644613 0 0 0 Z " fill="#101010" transform="translate(351,320)"/>
<path d="M0 0 C0.66 0 1.32 0 2 0 C3.92598468 16.15053504 4.97186058 32.3520603 5.99157715 48.5791626 C6.17082674 51.41165048 6.35491312 54.24381587 6.53901863 57.07599163 C6.7177154 59.83237861 6.89383716 62.5889254 7.06914902 65.34552956 C7.19205492 67.27312846 7.31672189 69.20061482 7.44143677 71.12809753 C7.81419232 77.09884003 8.09565896 83.01759979 8 89 C7.34 89 6.68 89 6 89 C4.10293118 80.2697998 3.63711765 71.65028771 3.34204102 62.74365234 C3.31037842 61.8305127 3.27871582 60.91737305 3.24609375 59.9765625 C3.22216553 59.16268066 3.1982373 58.34879883 3.17358398 57.51025391 C3.03537757 54.91606722 3.03537757 54.91606722 2.50219727 52.04980469 C2.01227611 49.07455183 1.8132861 46.23814076 1.71875 43.2265625 C1.68136719 42.1540625 1.64398438 41.0815625 1.60546875 39.9765625 C1.57066406 38.87054688 1.53585938 37.76453125 1.5 36.625 C1.285648 28.16123016 1.285648 28.16123016 0.47265625 19.7421875 C-0.04784076 15.6212277 -0.11239475 11.64510223 -0.0625 7.5 C-0.05798828 6.77296875 -0.05347656 6.0459375 -0.04882812 5.296875 C-0.03721193 3.53121319 -0.01928441 1.7655947 0 0 Z " fill="#141414" transform="translate(207,264)"/>
<path d="M0 0 C1.48388213 2.96776426 0.50063541 4.88901027 -0.2578125 8.08984375 C-0.55107422 9.33886475 -0.84433594 10.58788574 -1.14648438 11.87475586 C-1.47238731 13.22906865 -1.7985654 14.58331526 -2.125 15.9375 C-2.45413171 17.32486684 -2.78290595 18.71231854 -3.11132812 20.09985352 C-4.97895882 27.95091555 -6.95102618 35.76774537 -9.07788086 43.55273438 C-10.44354307 48.64287918 -11.64454697 53.76317389 -12.79296875 58.90625 C-13.02749252 59.95607811 -13.02749252 59.95607811 -13.26675415 61.02711487 C-14.05054799 64.54724425 -14.82518844 68.06917141 -15.58984375 71.59350586 C-15.8734375 72.88135986 -16.15703125 74.16921387 -16.44921875 75.49609375 C-16.70018311 76.65294678 -16.95114746 77.8097998 -17.2097168 79.00170898 C-17.89362999 81.59643803 -18.68374353 83.67742472 -20 86 C-21.5652159 79.37873631 -20.14394331 74.06632279 -18.46484375 67.56640625 C-18.18911026 66.45684067 -17.91337677 65.34727509 -17.62928772 64.2040863 C-16.74404608 60.65375236 -15.84113342 57.10819233 -14.9375 53.5625 C-14.35624205 51.24443615 -13.77615332 48.92607878 -13.19726562 46.60742188 C-12.0482734 42.01206027 -10.88893442 37.41949226 -9.72216797 32.82861328 C-8.55440426 28.22366761 -7.41488225 23.61299764 -6.29736328 18.99560547 C-6.02670547 17.88547592 -5.75604767 16.77534637 -5.47718811 15.63157654 C-4.96453016 13.5247681 -4.457304 11.41662833 -3.95628357 9.30702209 C-3.72780228 8.37288986 -3.49932098 7.43875763 -3.26391602 6.47631836 C-3.06717789 5.65675156 -2.87043976 4.83718475 -2.66773987 3.99278259 C-2 2 -2 2 0 0 Z " fill="#121212" transform="translate(338,286)"/>
<path d="M0 0 C0.495 1.485 0.495 1.485 1 3 C-0.56129285 5.01743527 -2.14050708 6.82893427 -3.875 8.6875 C-15.4898028 21.84100803 -24.0741601 38.66066344 -25.6875 56.3125 C-26.05078125 58.85546875 -26.05078125 58.85546875 -27 61 C-31.52922979 64.25606988 -36.61767941 65.75007721 -42 67 C-41.3046875 65.07421875 -41.3046875 65.07421875 -40 63 C-37.7578125 62.33203125 -37.7578125 62.33203125 -35.125 61.8125 C-32.3120607 60.94105819 -32.3120607 60.94105819 -30 59 C-28.43797591 54.89854494 -27.6870361 50.88493454 -26.90234375 46.58203125 C-23.59805697 28.49361601 -12.74959347 12.74959347 0 0 Z " fill="#060606" transform="translate(182,87)"/>
<path d="M0 0 C0.33 0 0.66 0 1 0 C0.54506421 13.20238443 -0.09774208 26.38267113 -1 39.5625 C-1.0829834 40.79186279 -1.1659668 42.02122559 -1.25146484 43.2878418 C-2.13300958 55.80352552 -2.13300958 55.80352552 -3 60 C-3.99 60.495 -3.99 60.495 -5 61 C-4.5682145 47.9235692 -4.00569797 34.85544655 -3.18597412 21.79742432 C-3.06431408 19.84166248 -2.95031167 17.88542915 -2.83642578 15.92919922 C-2.75763184 14.72150879 -2.67883789 13.51381836 -2.59765625 12.26953125 C-2.53070557 11.20323486 -2.46375488 10.13693848 -2.39477539 9.03833008 C-1.97728323 5.82516377 -1.11971202 3.03370111 0 0 Z " fill="#171717" transform="translate(294,266)"/>
<path d="M0 0 C-0.33 0.66 -0.66 1.32 -1 2 C-1.70125 1.855625 -2.4025 1.71125 -3.125 1.5625 C-13.57443 -0.4819537 -22.90365329 -1.21666978 -32.42578125 4.44140625 C-37.38272563 8.0320668 -40.64716578 11.89423336 -43.7109375 17.1796875 C-45 19 -45 19 -48 20 C-45.76524743 12.07469191 -40.8659385 6.43211574 -33.9140625 2.05859375 C-22.59043803 -3.74301632 -11.91509467 -4.94255779 0 0 Z " fill="#161616" transform="translate(346,166)"/>
<path d="M0 0 C1 3 1 3 0 6 C-0.55907194 11.58931611 -0.55907194 11.58931611 1.625 16.5 C4.74008151 18.4674199 6.37170989 18.5923739 10 18 C13.00225532 15.97522316 15.51018243 13.6208606 18 11 C17.58534283 15.83766699 15.5801385 17.85646376 12 21 C9.13391871 22.43304064 7.18699217 22.30644155 4 22 C0.03776335 19.86648796 -2.3875955 18.22002518 -4 14 C-4.1984573 8.71725559 -3.18122907 4.28774353 0 0 Z " fill="#0B0B0B" transform="translate(282,174)"/>
<path d="M0 0 C1.51020069 3.02040138 0.44790228 5.0863792 -0.328125 8.3359375 C-0.47779724 8.97052887 -0.62746948 9.60512024 -0.78167725 10.25894165 C-1.26463529 12.29923184 -1.75725169 14.33705465 -2.25 16.375 C-2.56702599 17.70948834 -2.88343882 19.0441225 -3.19921875 20.37890625 C-5.07192924 28.2677174 -7.0139364 36.13896056 -9 44 C-11.822159 39.76676151 -10.64395893 37.29209684 -9.734375 32.45410156 C-8.47950165 26.55185814 -7.02637432 20.71226415 -5.5 14.875 C-5.19191406 13.658125 -4.88382812 12.44125 -4.56640625 11.1875 C-4.11587891 9.45113281 -4.11587891 9.45113281 -3.65625 7.6796875 C-3.38619141 6.63538574 -3.11613281 5.59108398 -2.83789062 4.51513672 C-2 2 -2 2 0 0 Z " fill="#131313" transform="translate(338,286)"/>
<path d="M0 0 C0.66 0 1.32 0 2 0 C4.38297872 20.53191489 4.38297872 20.53191489 4 30 C3.34 30 2.68 30 2 30 C0.22796804 19.87410311 -0.23950618 10.2455423 0 0 Z " fill="#1A1A1A" transform="translate(207,264)"/>
<path d="M0 0 C0.33 0 0.66 0 1 0 C1 2.64 1 5.28 1 8 C-0.051875 8.31130859 -0.051875 8.31130859 -1.125 8.62890625 C-8.127016 10.90265873 -12.85184406 13.76152553 -18 19 C-18.66 19.66 -19.32 20.32 -20 21 C-20 17 -20 17 -17.875 14.5 C-12.39871103 9.73800959 -8.0234287 7.45312318 -1 6 C-1.020625 5.195625 -1.04125 4.39125 -1.0625 3.5625 C-1 1 -1 1 0 0 Z " fill="#0A0A0A" transform="translate(86,224)"/>
<path d="M0 0 C-0.33 0.66 -0.66 1.32 -1 2 C-1.70125 1.855625 -2.4025 1.71125 -3.125 1.5625 C-11.42027953 -0.06048947 -18.64992605 -0.39167899 -27 1 C-27.33 0.34 -27.66 -0.32 -28 -1 C-18.19479648 -3.96006144 -9.51723088 -3.94788836 0 0 Z " fill="#1F1F1F" transform="translate(346,166)"/>
<path d="M0 0 C-0.58942403 7.07308832 -1.46654378 14.33073063 -4 21 C-4.99 21.33 -5.98 21.66 -7 22 C-6.52974693 19.36858391 -6.05388628 16.73838173 -5.5703125 14.109375 C-5.20186894 12.10060052 -4.84188786 10.09024707 -4.4921875 8.078125 C-4.24855469 6.74007813 -4.24855469 6.74007813 -4 5.375 C-3.7834375 4.14910156 -3.7834375 4.14910156 -3.5625 2.8984375 C-3.376875 2.27195312 -3.19125 1.64546875 -3 1 C-1 0 -1 0 0 0 Z " fill="#0C0C0C" transform="translate(351,320)"/>
<path d="M0 0 C1.55921873 3.9769946 0.36917863 6.85257972 -0.875 10.8125 C-2.3535762 15.55324956 -3.40610505 20.06561748 -4 25 C-7.0636776 19.72432351 -5.72850172 14.96906804 -4.328125 9.26171875 C-2.37462121 2.37462121 -2.37462121 2.37462121 0 0 Z " fill="#151515" transform="translate(92,203)"/>
<path d="M0 0 C0.33 0.99 0.66 1.98 1 3 C10.405 2.505 10.405 2.505 20 2 C20 2.66 20 3.32 20 4 C17.59940183 5.20029908 16.10639351 5.11459743 13.4296875 5.09765625 C12.53378906 5.09443359 11.63789063 5.09121094 10.71484375 5.08789062 C9.77769531 5.07951172 8.84054687 5.07113281 7.875 5.0625 C6.93011719 5.05798828 5.98523438 5.05347656 5.01171875 5.04882812 C2.67441613 5.03702357 0.33723939 5.02055759 -2 5 C-1.34 3.35 -0.68 1.7 0 0 Z " fill="#010101" transform="translate(327,416)"/>
<path d="M0 0 C0.6640625 1.71484375 0.6640625 1.71484375 1 4 C-1.35799482 9.11489854 -4.69309538 13.78878974 -10 16 C-10.66 16 -11.32 16 -12 16 C-10.85438219 12.56314656 -9.39333998 11.71281119 -6.6328125 9.5390625 C-3.75506324 6.82654287 -1.92114068 3.42575085 0 0 Z " fill="#101010" transform="translate(359,404)"/>
<path d="M0 0 C0.33 0 0.66 0 1 0 C1.18976097 5.40818775 1.11160333 9.91295561 -1 15 C-4.76133281 18.93230248 -7.55707242 20.61121946 -13 21 C-11.09542929 18.77800084 -9.64134671 17.83165254 -6.9375 16.5625 C-3.69873148 14.83975079 -3.26074148 14.29643416 -2 11 C-1.58565852 8.44751765 -1.58565852 8.44751765 -1.4375 5.8125 C-1.09936909 1.09936909 -1.09936909 1.09936909 0 0 Z " fill="#050505" transform="translate(174,146)"/>
<path d="M0 0 C0.33 0.66 0.66 1.32 1 2 C-0.00037332 4.75691118 -1.06451038 7.38701264 -2.25 10.0625 C-2.56324219 10.80822266 -2.87648438 11.55394531 -3.19921875 12.32226562 C-4.04553516 14.25544895 -5.01593344 16.13316785 -6 18 C-6.99 18.33 -7.98 18.66 -9 19 C-7.08853524 12.8746243 -5.10877586 6.63858941 -2 1 C-1.34 0.67 -0.68 0.34 0 0 Z " fill="#121212" transform="translate(386,393)"/>
<path d="M0 0 C1.7093832 3.41876639 -0.04366223 7.06121965 -0.9375 10.625 C-1.13279297 11.42679687 -1.32808594 12.22859375 -1.52929688 13.0546875 C-2.01331602 15.03798547 -2.50586022 17.01919934 -3 19 C-5.45073909 15.32389136 -5.0513911 14.30195318 -4.3125 10.0625 C-4.05919922 8.50208984 -4.05919922 8.50208984 -3.80078125 6.91015625 C-2.98763515 3.95506431 -1.99995837 2.28645379 0 0 Z " fill="#1E1E1E" transform="translate(332,311)"/>
<path d="M0 0 C1.18687326 3.56061977 0.72075494 4.98878941 -0.25 8.5625 C-0.50265625 9.53316406 -0.7553125 10.50382813 -1.015625 11.50390625 C-2 14 -2 14 -5 16 C-4.5587029 10.77411334 -4.07351958 5.8788696 -2 1 C-1.34 0.67 -0.68 0.34 0 0 Z " fill="#050505" transform="translate(178,131)"/>
<path d="M0 0 C-3.86457011 3.86457011 -10.72886005 4.20932901 -16 5 C-16.33 4.34 -16.66 3.68 -17 3 C-14.92085336 2.29994051 -12.83648414 1.61537756 -10.75 0.9375 C-9.58984375 0.55464844 -8.4296875 0.17179687 -7.234375 -0.22265625 C-4.19922915 -0.95211763 -2.84296787 -1.11889082 0 0 Z " fill="#191919" transform="translate(239,81)"/>
<path d="M0 0 C1.8709949 2.80649235 3.23017952 5.49960473 4.625 8.5625 C5.07101563 9.53316406 5.51703125 10.50382812 5.9765625 11.50390625 C7 14 7 14 7 16 C4 15 4 15 2.578125 12.63671875 C2.13984375 11.66347656 1.7015625 10.69023437 1.25 9.6875 C0.80140625 8.72199219 0.3528125 7.75648438 -0.109375 6.76171875 C-1.02884475 3.91055596 -1.06798426 2.74159373 0 0 Z " fill="#141414" transform="translate(119,398)"/>
<path d="M0 0 C-10.85 7 -10.85 7 -16 7 C-15 4 -15 4 -12.3828125 2.578125 C-11.30773437 2.13984375 -10.23265625 1.7015625 -9.125 1.25 C-8.05507812 0.80140625 -6.98515625 0.3528125 -5.8828125 -0.109375 C-3 -1 -3 -1 0 0 Z " fill="#121212" transform="translate(162,166)"/>
<path d="M0 0 C1.15006091 3.37299744 0.85199953 5.34853215 -0.3125 8.6875 C-0.57675781 9.47511719 -0.84101563 10.26273437 -1.11328125 11.07421875 C-2 13 -2 13 -4 14 C-2.86792453 2.86792453 -2.86792453 2.86792453 0 0 Z " fill="#181818" transform="translate(335,382)"/>
<path d="M0 0 C1.08557659 3.24215827 0.94015194 5.02321809 -0.3125 8.1875 C-0.57675781 8.88230469 -0.84101563 9.57710938 -1.11328125 10.29296875 C-2 12 -2 12 -4 13 C-2.88767123 3.46575342 -2.88767123 3.46575342 -2 1 C-1.34 0.67 -0.68 0.34 0 0 Z " fill="#191919" transform="translate(345,341)"/>
<path d="M0 0 C3.7652358 0.25672062 5.55839511 0.59325866 8.375 3.1875 C10.24249951 6.41971069 10.34155908 8.32823991 10 12 C9.773125 11.443125 9.54625 10.88625 9.3125 10.3125 C7.04399551 6.31561114 4.38100054 3.46033351 0 2 C0 1.34 0 0.68 0 0 Z " fill="#121212" transform="translate(412,250)"/>
<path d="M0 0 C0.99 0.33 1.98 0.66 3 1 C-1.75 5.875 -1.75 5.875 -4 7 C-4.65555119 9.52733235 -4.65555119 9.52733235 -5 12 C-5.33 12 -5.66 12 -6 12 C-6.35671933 8.16526716 -6.29771416 6.44657125 -4.125 3.1875 C-2 1 -2 1 0 0 Z " fill="#262626" transform="translate(86,250)"/>
<path d="M0 0 C0.66 0 1.32 0 2 0 C4.42857143 8.42857143 4.42857143 8.42857143 3 13 C0.89172945 9.83759418 0.66182535 8.49342531 0.375 4.8125 C0.30023438 3.91144531 0.22546875 3.01039063 0.1484375 2.08203125 C0.09945312 1.39496094 0.05046875 0.70789063 0 0 Z " fill="#121212" transform="translate(164,286)"/>
<path d="M0 0 C1 3 1 3 0.3125 5.5625 C-1.19069719 8.35415192 -2.18672999 8.75666071 -5 10 C-4.55090939 8.51800098 -4.09043436 7.03944764 -3.625 5.5625 C-3.36976562 4.73878906 -3.11453125 3.91507813 -2.8515625 3.06640625 C-2 1 -2 1 0 0 Z " fill="#171717" transform="translate(112,208)"/>
<path d="M0 0 C0.33 0.66 0.66 1.32 1 2 C0.22265625 3.9453125 0.22265625 3.9453125 -0.9375 6.125 C-1.31777344 6.84945313 -1.69804687 7.57390625 -2.08984375 8.3203125 C-2.39019531 8.87460937 -2.69054687 9.42890625 -3 10 C-3.66 10 -4.32 10 -5 10 C-3.14285714 2.42857143 -3.14285714 2.42857143 0 0 Z " fill="#0A0A0A" transform="translate(425,302)"/>
<path d="M0 0 C0 0.66 0 1.32 0 2 C-6.625 6 -6.625 6 -10 6 C-4.15384615 0 -4.15384615 0 0 0 Z " fill="#070707" transform="translate(319,166)"/>
<path d="M0 0 C0.33 0 0.66 0 1 0 C1.25 6.625 1.25 6.625 -1 10 C-2.15837626 5.94568308 -1.83691257 3.78187881 0 0 Z " fill="#0A0A0A" transform="translate(327,327)"/>
<path d="M0 0 C0.33 0 0.66 0 1 0 C1 2.64 1 5.28 1 8 C-0.32 7.67 -1.64 7.34 -3 7 C-2.01 4.69 -1.02 2.38 0 0 Z " fill="#010101" transform="translate(86,224)"/>
<path d="M0 0 C1.2077558 3.62326739 0.54311128 4.64146369 -1 8 C-1.66 8 -2.32 8 -3 8 C-2.25 2.25 -2.25 2.25 0 0 Z " fill="#030303" transform="translate(282,174)"/>
<path d="M0 0 C2 2 2 2 2.3125 4.5 C2.209375 5.325 2.10625 6.15 2 7 C1.01 7.66 0.02 8.32 -1 9 C-0.67 6.03 -0.34 3.06 0 0 Z " fill="#282828" transform="translate(174,138)"/>
</svg>
